<?xml version="1.0" standalone="no"?>
<!DOCTYPE svg PUBLIC "-//W3C//DTD SVG 20010904//EN"
 "http://www.w3.org/TR/2001/REC-SVG-20010904/DTD/svg10.dtd">
<svg version="1.0" xmlns="http://www.w3.org/2000/svg"
 width="600px" height="600px" viewBox="0 0 1280.000000 1144.000000"
 preserveAspectRatio="xMidYMid meet">

<g transform="translate(0.000000,1144.000000) scale(0.100000,-0.100000)"
fill="#9E9E9E" stroke="none" >
<path d="M1953 11414 c-14 -22 -18 -48 -18 -116 0 -48 -3 -88 -6 -88 -4 0 -17
15 -30 34 -36 54 -153 102 -184 76 -8 -7 -15 -16 -15 -20 0 -19 64 -66 114
-85 56 -21 60 -26 43 -63 -9 -19 -16 -22 -36 -18 -59 13 -121 18 -154 12 -36
-7 -107 -69 -107 -93 0 -26 -21 -22 -70 11 -52 36 -107 53 -135 42 -21 -8 -19
-20 12 -57 33 -39 95 -68 145 -69 20 0 39 -4 42 -8 3 -5 -23 -27 -58 -50 -97
-64 -128 -145 -48 -127 36 8 107 67 127 106 14 25 18 27 39 17 62 -28 140 24
120 80 -7 21 -16 27 -38 27 -16 0 -31 -6 -34 -13 -3 -9 3 -12 14 -10 13 2 19
-3 19 -17 0 -15 -8 -21 -31 -23 -38 -4 -59 18 -50 52 14 57 71 76 165 56 53
-11 59 -15 70 -47 7 -20 38 -59 68 -88 44 -42 52 -54 40 -63 -11 -9 -23 -2
-58 34 -100 104 -192 88 -100 -18 35 -39 69 -60 136 -83 16 -6 8 -11 -39 -29
-71 -25 -143 -84 -133 -109 15 -39 134 -3 183 56 25 30 26 30 54 14 40 -24 77
-21 105 8 30 29 31 45 7 75 -13 17 -24 21 -40 16 -28 -9 -29 -26 -1 -26 36 0
19 -35 -19 -38 -26 -3 -34 1 -41 20 -10 28 -4 47 22 71 46 40 158 6 252 -76
48 -43 49 -44 33 -68 -27 -40 -95 -107 -135 -133 -60 -40 -76 -75 -75 -167 1
-75 0 -79 -22 -85 -15 -3 -40 3 -66 16 -23 12 -48 19 -56 16 -20 -8 -17 -53 7
-103 17 -35 19 -46 9 -58 -7 -8 -19 -15 -26 -15 -26 0 -92 -32 -98 -46 -3 -8
5 -36 18 -62 21 -41 25 -66 31 -197 3 -82 11 -173 16 -202 22 -112 -65 -313
-113 -265 -17 17 -48 161 -54 252 -6 76 -3 92 20 154 14 37 26 79 26 91 0 13
-19 47 -42 76 l-41 53 11 56 c7 31 12 70 12 87 0 31 -21 63 -41 63 -24 0 -110
-52 -140 -85 -19 -20 -56 -48 -84 -62 -75 -38 -129 -86 -208 -184 -72 -90
-100 -109 -202 -135 -33 -8 -29 -35 6 -48 45 -15 76 1 173 92 243 226 276 253
340 283 37 17 73 28 81 25 12 -4 15 -24 15 -89 0 -76 2 -86 25 -107 31 -29 32
-61 4 -143 -24 -70 -22 -157 7 -297 27 -130 45 -145 158 -138 72 4 82 23 102
188 16 134 13 241 -14 420 -9 67 -6 78 44 133 28 31 49 67 57 95 7 26 22 51
35 61 81 55 86 64 92 149 8 103 28 133 133 202 l80 52 46 -45 c25 -25 63 -53
84 -64 l38 -19 -58 -39 c-31 -22 -71 -60 -88 -83 -27 -40 -30 -51 -30 -125 0
-70 3 -87 23 -115 60 -83 193 -87 242 -7 53 85 -3 185 -105 187 -25 0 -45 4
-45 8 0 12 65 66 114 95 l45 26 62 -42 c134 -90 282 -141 412 -141 42 0 77 -3
77 -7 0 -10 -157 -92 -257 -134 -44 -19 -116 -56 -160 -82 -104 -64 -141 -75
-239 -75 -114 0 -130 -7 -138 -64 -7 -43 -11 -48 -54 -69 -54 -25 -87 -74 -78
-112 3 -13 24 -45 46 -70 23 -27 40 -57 40 -71 0 -15 6 -24 15 -24 24 0 18 45
-16 123 -35 79 -33 92 21 118 37 18 59 51 60 91 0 15 4 29 9 32 4 3 53 8 107
12 127 8 179 24 286 91 48 30 113 64 145 77 32 13 113 49 180 80 129 59 146
63 189 44 25 -12 26 -15 20 -68 -7 -66 -24 -130 -34 -130 -5 0 -14 16 -21 35
-15 42 -51 72 -97 81 -70 13 -154 -56 -154 -127 0 -31 36 -94 70 -122 42 -36
88 -43 147 -23 108 36 156 91 174 197 17 96 13 91 56 74 80 -31 248 -66 385
-80 78 -8 147 -20 152 -25 13 -13 -71 -49 -133 -57 -40 -4 -59 -1 -98 18 -41
21 -63 24 -153 24 -149 0 -151 -1 -230 -161 -74 -150 -107 -199 -180 -271 -62
-62 -100 -81 -183 -94 -34 -5 -90 -14 -125 -19 -34 -6 -95 -26 -136 -45 -99
-48 -134 -47 -182 5 -33 35 -43 40 -81 40 -57 0 -53 -16 12 -52 31 -17 57 -41
73 -67 13 -23 31 -41 39 -41 8 0 29 14 46 32 47 47 117 74 262 101 198 38 255
65 346 166 81 88 104 126 138 221 36 101 67 134 134 144 46 7 53 5 212 -54 71
-26 121 -23 203 15 65 30 118 40 165 31 28 -5 37 -14 56 -55 12 -27 34 -57 49
-67 42 -27 112 -105 128 -141 19 -43 17 -84 -6 -168 -32 -116 -26 -200 26
-384 13 -46 24 -94 24 -107 0 -38 -20 -120 -34 -139 -12 -17 -16 -16 -65 11
-87 47 -119 101 -91 153 13 26 36 32 65 19 16 -7 25 -19 25 -34 0 -30 -15 -38
-35 -18 -19 20 -29 13 -20 -15 14 -44 79 -33 91 15 9 36 -18 88 -53 103 -29
12 -29 13 -20 59 16 80 -38 201 -74 165 -21 -21 -22 -95 -1 -156 10 -32 15
-60 11 -63 -4 -2 -20 6 -34 18 -34 30 -80 46 -132 47 -52 1 -73 -7 -73 -28 1
-33 92 -71 170 -71 27 0 30 -2 20 -19 -15 -29 -12 -108 5 -140 8 -16 33 -44
56 -63 l42 -35 -74 -18 c-41 -10 -98 -26 -128 -37 -30 -10 -58 -18 -62 -18 -4
0 -40 28 -81 61 -99 84 -175 119 -255 119 -71 0 -146 -24 -198 -64 -18 -14
-41 -26 -49 -26 -9 0 -34 18 -56 40 -31 31 -40 48 -40 73 0 36 25 67 53 67 20
0 47 -27 47 -46 0 -20 -30 -30 -40 -13 -12 19 -23 5 -15 -20 8 -27 55 -28 78
-3 35 38 13 99 -42 122 -27 11 -30 16 -23 39 19 70 -13 183 -54 189 -37 5 -45
-64 -18 -160 9 -32 14 -61 12 -64 -3 -3 -18 6 -33 20 -32 30 -85 49 -141 50
-44 1 -76 -17 -68 -39 8 -21 82 -52 141 -60 51 -7 53 -8 45 -33 -12 -44 -4
-115 16 -142 10 -14 39 -38 64 -55 l45 -30 0 -62 c1 -88 33 -150 93 -180 55
-28 99 -29 150 -3 84 43 114 143 70 230 -11 22 -20 42 -20 45 0 10 124 -57
163 -87 l37 -30 -26 -31 c-32 -38 -54 -87 -54 -121 0 -46 70 -86 397 -226 72
-31 105 -51 112 -67 15 -33 14 -93 -1 -94 -28 -3 -132 3 -318 16 -260 20 -340
8 -340 -51 0 -32 36 -49 145 -67 412 -71 418 -72 585 -72 233 0 259 10 349
141 77 111 133 125 322 79 234 -56 290 -24 424 241 65 129 84 160 103 162 63
9 98 -63 89 -185 -4 -59 -13 -85 -51 -158 -25 -48 -55 -118 -67 -156 -19 -61
-28 -76 -82 -125 -70 -63 -137 -103 -137 -81 0 7 5 18 10 23 6 6 13 33 16 60
5 40 1 58 -18 93 -27 51 -91 91 -142 91 -45 0 -117 -39 -143 -78 -55 -83 -33
-209 45 -269 108 -82 266 -82 374 1 37 28 48 26 48 -9 0 -16 -10 -27 -31 -35
-18 -8 -38 -28 -50 -51 -33 -65 -63 -69 -159 -18 -37 20 -60 24 -131 24 -84 0
-88 -1 -201 -57 -151 -75 -186 -82 -387 -75 l-163 6 -83 41 c-82 41 -83 41
-166 35 -77 -6 -86 -5 -106 14 -13 12 -28 42 -34 67 -6 24 -20 49 -30 55 -10
5 -57 8 -103 7 -89 -2 -117 9 -131 52 -13 39 -65 30 -65 -11 0 -25 65 -86 104
-98 17 -5 57 -15 89 -21 50 -10 62 -17 98 -60 48 -57 73 -68 183 -76 58 -4 99
-14 146 -34 85 -38 232 -62 394 -64 l128 -1 -6 -41 c-10 -76 18 -132 86 -167
l27 -14 -31 -42 c-19 -27 -32 -58 -36 -87 -4 -39 -2 -44 16 -44 42 0 112 122
95 166 -3 8 1 14 11 14 9 0 16 -6 16 -13 0 -20 59 -86 92 -103 62 -32 63 28 2
96 -20 21 -44 42 -55 45 -16 5 -18 13 -13 46 9 51 -15 89 -55 89 -32 0 -54
-21 -49 -46 4 -24 30 -31 26 -8 -2 13 3 19 17 19 26 0 32 -37 10 -59 -23 -22
-42 -20 -70 9 -28 28 -33 81 -13 147 9 29 21 44 47 57 74 38 221 52 316 31
136 -29 184 -46 189 -65 12 -45 6 -123 -11 -143 -25 -30 -66 -37 -87 -16 -24
24 -17 68 12 72 18 3 22 -1 22 -25 1 -27 1 -27 15 -9 21 28 19 43 -10 62 -56
36 -117 -28 -96 -101 9 -33 7 -36 -17 -49 -34 -18 -75 -62 -96 -103 -20 -39
-20 -59 -2 -66 27 -11 81 30 121 91 22 33 43 61 46 61 4 1 9 -23 11 -53 5 -60
40 -124 83 -152 68 -45 60 58 -13 155 -16 21 -21 36 -15 38 40 14 92 66 109
108 18 49 19 46 -13 183 -5 20 -2 22 41 22 40 0 51 -5 77 -32 40 -44 39 -94
-5 -200 -71 -171 -70 -267 4 -413 22 -44 40 -89 40 -101 0 -11 -11 -51 -23
-90 l-24 -69 -104 -7 c-57 -4 -139 -14 -183 -22 -90 -18 -113 -11 -161 45 -21
26 -25 39 -21 63 9 46 30 62 63 50 20 -7 29 -17 31 -37 4 -29 -14 -37 -36 -15
-17 17 -25 3 -12 -21 11 -21 45 -28 66 -13 23 15 34 50 25 75 -10 26 -56 67
-75 67 -7 0 -11 26 -11 73 0 58 -4 79 -24 110 -52 84 -88 7 -52 -113 24 -77
22 -93 -7 -67 -31 28 -89 47 -145 47 -56 0 -86 -17 -72 -41 14 -22 91 -49 142
-49 l52 0 -6 -53 c-5 -48 2 -76 35 -139 2 -5 -34 -8 -80 -8 -68 0 -266 -9
-473 -22 l-40 -3 -17 70 c-18 78 -24 235 -8 235 6 0 10 -4 10 -9 0 -19 54 -72
87 -86 50 -21 102 -18 147 8 69 39 97 101 82 181 -14 74 -113 150 -195 150
-112 0 -244 -118 -266 -237 -4 -20 -11 -37 -15 -37 -14 0 -89 60 -99 79 -26
48 -4 111 39 111 23 0 51 -37 43 -56 -6 -16 -33 -19 -33 -4 0 6 -5 10 -11 10
-6 0 -9 -10 -7 -22 2 -19 9 -23 38 -23 73 0 77 92 5 130 -33 18 -33 19 -28 77
7 66 -16 142 -47 158 -40 22 -53 -71 -24 -169 8 -29 13 -55 10 -58 -3 -3 -21
8 -40 25 -44 38 -124 57 -173 41 -75 -24 -9 -77 119 -94 45 -6 47 -7 38 -31
-33 -85 9 -165 112 -219 61 -32 68 -39 74 -73 3 -20 12 -62 20 -93 8 -31 14
-64 14 -72 0 -21 -130 -86 -214 -108 -85 -22 -184 -24 -230 -5 -43 18 -72 60
-81 117 -8 51 -3 63 80 207 82 143 72 204 -41 237 -54 15 -94 52 -94 84 0 35
66 82 148 106 104 31 185 111 152 150 -21 25 -79 35 -145 24 -33 -5 -90 -12
-127 -15 -86 -8 -98 0 -98 71 0 96 -53 175 -196 292 l-39 31 68 64 c37 34 67
70 67 79 0 9 -13 34 -28 55 -24 32 -40 43 -98 61 -110 35 -179 45 -336 52
l-146 6 -41 33 c-58 47 -91 56 -175 48 l-73 -7 -26 50 c-44 80 -29 151 31 151
24 0 45 -31 36 -54 -8 -20 -34 -21 -34 -1 0 20 -19 19 -26 0 -16 -40 65 -64
86 -26 15 29 12 82 -5 101 -14 16 -14 20 8 46 31 37 52 104 43 139 -15 58 -68
5 -96 -96 l-17 -64 -21 47 c-34 78 -140 138 -150 85 -4 -18 64 -93 103 -115
20 -10 19 -11 -7 -39 -53 -57 -55 -134 -5 -206 10 -16 17 -31 13 -34 -11 -12
-123 18 -193 52 -93 44 -151 90 -173 138 -16 34 -16 46 -3 130 17 113 39 192
64 233 61 100 64 276 5 335 -13 13 -28 34 -35 46 -15 30 -14 130 4 238 18 109
19 128 3 123 -24 -8 -39 -119 -36 -255 3 -124 4 -133 28 -158 22 -23 25 -38
28 -109 4 -82 -11 -166 -28 -166 -12 0 -56 -77 -64 -113 -5 -23 -20 -35 -79
-63 -117 -55 -361 -95 -460 -74 l-54 11 -37 77 c-50 108 -48 135 14 206 76 87
87 170 34 262 -13 23 -21 43 -19 46 11 10 -24 99 -56 143 l-33 46 19 34 c16
30 17 40 6 74 -11 39 -51 81 -76 81 -7 0 -35 18 -61 40 -113 93 -212 64 -173
-52 16 -48 5 -71 -36 -76 -18 -2 -35 4 -52 20 -20 19 -34 22 -76 20 -29 -2
-68 -4 -87 -5 -29 -2 -36 2 -38 20 -4 30 25 37 78 18 23 -8 71 -15 106 -15
l64 0 0 43 c0 36 -6 48 -32 73 -57 52 -132 71 -158 39 -14 -17 -10 -19 48 -29
53 -9 98 -35 111 -62 16 -36 -8 -41 -88 -21 -85 22 -169 23 -177 2 -15 -39 60
-134 95 -120 51 21 90 17 144 -14 68 -39 91 -39 128 -2 34 35 38 73 10 115
-11 17 -18 33 -15 38 11 17 60 6 119 -27 77 -43 125 -87 125 -114 0 -27 -23
-27 -59 0 -32 23 -64 22 -69 -3 -4 -22 51 -83 103 -114 49 -28 80 -82 71 -120
-4 -13 -11 -24 -17 -24 -6 0 -59 -23 -117 -52 -82 -40 -118 -52 -156 -52 -46
-1 -50 1 -58 29 -5 17 -13 65 -17 108 -11 112 -54 148 -193 167 -40 5 -113 15
-163 22 -49 7 -143 13 -207 13 -115 0 -117 0 -147 29 -34 33 -42 84 -17 105
20 17 56 -3 56 -29 0 -23 -10 -26 -28 -8 -9 9 -12 7 -12 -9 0 -11 7 -24 16
-27 20 -8 64 19 64 39 0 27 -22 63 -47 74 -21 10 -24 16 -18 42 16 72 -38 180
-65 130 -14 -27 -13 -59 5 -116 8 -27 12 -51 10 -53 -2 -3 -18 7 -35 21 -49
41 -151 51 -158 15 -4 -22 65 -58 113 -58 l36 0 -6 -42 c-8 -55 6 -92 51 -133
l36 -33 -29 -43 c-15 -24 -42 -63 -60 -86 -36 -48 -71 -145 -80 -223 -9 -74
-58 -130 -114 -130 -29 0 -41 5 -50 21 -9 18 -7 25 10 42 16 16 24 18 32 10 9
-9 9 -16 -1 -29 -12 -14 -11 -16 10 -12 17 2 26 10 28 26 8 54 -60 71 -105 26
-22 -22 -29 -24 -56 -15 -40 14 -86 14 -116 -2 -61 -31 -19 -61 83 -59 l70 2
-32 -33 c-47 -48 -70 -135 -41 -152 18 -12 57 35 75 87 14 43 19 49 38 43 64
-18 85 -17 128 8 24 14 50 37 58 52 10 18 18 24 29 18 19 -9 71 -8 172 2 131
13 151 -4 124 -105 -25 -94 -11 -243 28 -303 10 -15 60 -46 131 -80 90 -43
118 -62 130 -86 9 -16 16 -37 16 -45 0 -26 -52 -76 -114 -109 -75 -40 -82 -57
-26 -57 51 0 88 19 128 64 52 60 64 132 33 194 -21 40 -53 63 -148 103 -144
62 -165 109 -122 275 26 103 20 155 -26 201 -38 38 -72 42 -151 18 -128 -39
-181 0 -139 102 19 45 112 201 138 230 41 47 162 52 257 11 38 -16 58 -18 150
-12 124 8 130 4 150 -91 25 -119 25 -112 -16 -158 -22 -23 -50 -58 -64 -76
-26 -34 -26 -34 -65 -21 -22 7 -45 18 -51 24 -20 20 -26 56 -14 71 16 20 56
19 64 -1 9 -24 8 -27 -15 -21 -15 4 -19 1 -17 -11 4 -21 34 -28 53 -12 19 16
19 64 0 80 -8 7 -29 15 -47 19 -26 5 -33 13 -44 50 -15 50 -59 101 -87 101
-30 0 -16 -60 28 -121 l36 -51 -32 7 c-51 11 -105 8 -138 -10 -35 -17 -38 -27
-16 -45 15 -12 100 -10 135 4 12 5 19 -4 27 -37 14 -49 54 -95 92 -103 48 -11
51 -13 51 -50 0 -56 20 -111 56 -152 31 -36 33 -37 103 -37 65 0 73 2 101 30
38 39 48 90 26 137 -28 58 -104 86 -158 57 -11 -6 -22 -8 -25 -5 -8 8 41 87
70 114 22 20 28 22 48 12 35 -19 124 -5 221 34 93 38 148 45 168 21 6 -8 14
-32 17 -54 4 -32 1 -46 -20 -73 -40 -52 -76 -138 -83 -199 -6 -49 -3 -64 19
-110 15 -30 32 -62 39 -72 11 -16 8 -23 -29 -57 -23 -22 -52 -40 -63 -40 -51
0 -78 42 -45 70 19 16 54 5 37 -12 -16 -16 -15 -28 3 -28 22 0 38 36 25 59
-21 40 -74 34 -110 -11 -13 -16 -20 -17 -44 -9 -56 22 -146 7 -146 -24 0 -24
49 -37 113 -32 31 3 57 3 57 0 0 -3 -13 -21 -30 -39 -47 -54 -62 -144 -25
-144 21 0 55 49 68 97 9 33 15 42 27 37 25 -12 88 -17 117 -9 15 3 44 24 64
46 l36 39 43 -15 c89 -31 193 -17 405 54 65 23 122 41 127 41 4 0 2 -14 -4
-31 -6 -17 -8 -52 -5 -78 l6 -47 -67 -42 c-114 -70 -136 -96 -151 -178 -15
-76 -9 -124 13 -124 15 0 66 127 66 164 0 27 30 56 87 85 58 29 78 27 93 -9
17 -41 80 -94 160 -133 l65 -32 185 0 186 0 43 -37 c31 -26 57 -39 90 -44 25
-4 57 -11 71 -17 14 -6 81 -13 150 -17 109 -6 132 -10 178 -34 62 -32 72 -49
45 -79 -31 -34 -43 -62 -43 -102 0 -33 9 -47 78 -116 76 -77 122 -145 122
-180 0 -11 -22 6 -65 50 -87 91 -156 125 -244 124 -86 -1 -170 -33 -211 -79
-26 -30 -36 -35 -57 -29 -43 10 -103 77 -103 114 0 28 29 71 48 71 18 0 52
-33 52 -50 0 -27 -16 -33 -35 -14 -20 20 -26 15 -18 -14 8 -30 48 -39 73 -17
29 26 26 78 -5 110 -14 14 -32 25 -39 25 -10 0 -13 18 -12 73 2 122 -58 207
-85 118 -10 -32 -9 -50 3 -98 9 -32 19 -66 23 -75 5 -13 2 -18 -9 -18 -9 0
-16 4 -16 9 0 18 -103 61 -146 61 -55 0 -74 -8 -74 -31 0 -25 69 -59 134 -66
l51 -5 0 -79 c0 -75 1 -79 35 -114 19 -19 55 -45 81 -56 47 -22 47 -22 51 -78
7 -97 71 -156 169 -156 67 1 115 31 144 91 17 37 17 116 0 158 -7 17 -6 17 21
2 52 -28 184 -165 184 -191 0 -16 -229 -92 -330 -110 -47 -9 -151 -20 -231
-25 -80 -5 -194 -16 -253 -25 -60 -9 -111 -14 -113 -11 -3 3 4 44 16 90 40
160 26 231 -75 383 -114 172 -214 255 -364 299 -141 42 -171 55 -210 90 -20
18 -50 38 -66 45 -41 17 -295 23 -393 10 l-83 -11 -71 -66 c-113 -105 -123
-108 -382 -114 -191 -4 -225 -7 -248 -23 -44 -28 -53 -58 -39 -126 20 -97 17
-114 -25 -142 -21 -13 -47 -42 -57 -63 -17 -35 -18 -45 -7 -85 19 -72 34 -81
133 -83 69 -1 94 3 130 20 24 12 47 22 51 22 4 0 7 -16 7 -35 0 -32 -27 -75
-47 -75 -5 0 -48 5 -97 10 -111 13 -130 4 -141 -67 -4 -26 -14 -56 -22 -65
-16 -18 -68 -25 -77 -10 -3 5 0 38 6 74 14 78 11 82 -69 134 -45 29 -58 45
-94 116 -59 120 -92 168 -111 168 -24 0 -23 7 6 40 15 18 30 59 41 106 15 67
15 85 5 131 -19 76 -7 98 62 112 42 9 202 62 298 99 9 4 2 7 -17 10 -31 3
-308 -74 -363 -101 -22 -12 -25 -20 -26 -72 -1 -33 -2 -77 -3 -98 l-1 -39 -32
19 c-38 22 -71 74 -62 97 7 19 35 18 42 -2 2 -7 -2 -10 -12 -6 -11 4 -16 1
-16 -10 0 -22 37 -20 49 2 7 14 6 25 -6 41 -12 18 -13 28 -4 47 14 32 14 71
-1 80 -15 10 -38 -24 -38 -58 0 -15 -4 -28 -10 -28 -5 0 -10 4 -10 8 0 11 -55
42 -75 42 -27 0 -13 -32 25 -59 19 -13 26 -21 15 -16 -11 4 -33 12 -50 17 -16
6 -38 19 -47 30 -21 24 -24 74 -5 81 19 7 41 -8 33 -22 -4 -6 -12 -9 -17 -6
-5 4 -9 -1 -9 -10 0 -11 7 -15 23 -13 18 2 22 9 22 43 1 22 6 50 13 62 16 29
16 86 0 81 -7 -2 -22 -22 -33 -44 l-20 -40 -28 33 c-29 33 -67 44 -67 19 0 -7
14 -27 31 -44 30 -29 30 -31 15 -53 -20 -30 -20 -68 0 -97 9 -13 13 -30 10
-39 -6 -14 -12 -11 -39 15 -18 18 -38 32 -45 32 -24 0 -11 -40 23 -67 l34 -27
-41 -21 c-23 -11 -44 -26 -46 -32 -5 -18 58 -16 82 2 30 23 56 19 56 -7 1 -28
16 -49 53 -73 l28 -18 -37 -13 c-34 -12 -53 -28 -54 -46 0 -13 44 -9 74 7 18
9 41 13 57 10 18 -4 32 -1 43 11 20 19 16 38 -7 42 -12 3 -15 -1 -10 -14 4
-12 2 -15 -8 -12 -20 7 -17 42 4 46 10 2 32 -2 48 -8 39 -17 37 -41 -7 -113
-20 -32 -33 -64 -30 -72 3 -8 25 -19 48 -25 43 -11 44 -13 91 -114 42 -89 54
-106 88 -126 22 -12 53 -40 69 -62 28 -38 28 -40 14 -80 -36 -102 48 -164 139
-103 36 25 54 62 44 89 -11 29 19 37 119 32 84 -3 99 -7 105 -22 12 -30 10
-99 -3 -112 -17 -17 -48 -15 -48 3 0 18 16 20 23 3 3 -9 7 -7 12 5 10 24 -8
41 -34 32 -13 -4 -24 -18 -28 -36 -3 -15 -14 -31 -24 -34 -19 -6 -59 -51 -59
-66 0 -18 39 -8 69 17 l31 26 0 -27 c0 -28 16 -66 34 -77 15 -10 27 13 19 37
-6 20 -5 20 16 1 11 -11 21 -29 21 -42 0 -36 -21 -74 -42 -74 -20 0 -36 26
-23 38 4 4 10 1 12 -5 7 -20 23 -15 23 6 0 40 -54 29 -70 -15 -5 -13 -18 -24
-28 -24 -24 0 -62 -28 -62 -46 0 -18 40 -18 66 1 27 20 36 18 29 -5 -8 -26 13
-92 28 -87 7 2 12 22 13 44 1 48 9 63 35 63 22 0 59 54 59 88 0 14 6 22 18 22
13 0 17 -9 17 -40 1 -43 16 -67 35 -55 9 5 11 25 7 60 l-5 53 39 -16 c32 -12
42 -13 52 -3 9 10 7 17 -12 32 -13 10 -33 19 -46 19 -31 0 -51 25 -36 44 14
17 17 61 6 95 -6 21 -5 23 11 16 11 -4 34 -10 52 -13 24 -3 32 0 32 12 0 18
-30 36 -60 36 -12 0 -35 14 -50 30 -17 18 -34 28 -43 24 -22 -8 -28 -31 -11
-44 11 -10 14 -9 14 4 0 9 5 16 10 16 6 0 10 -9 10 -20 0 -33 -46 -26 -65 9
-18 35 -11 56 27 93 31 29 34 48 17 99 -18 54 -37 69 -84 69 -32 0 -47 -6 -66
-26 -66 -71 -149 -72 -185 -3 -23 45 -5 80 54 110 68 35 79 63 56 149 -9 37
-15 74 -11 82 4 12 37 16 164 21 248 10 376 45 511 141 81 58 107 67 211 73
173 10 277 -24 392 -132 45 -42 52 -45 103 -45 151 0 212 -37 281 -171 26 -52
65 -118 86 -147 22 -31 43 -76 50 -107 11 -50 9 -218 -3 -231 -3 -3 -41 30
-85 73 -84 86 -120 103 -208 103 -67 0 -119 -18 -165 -57 l-40 -34 -27 19
c-53 38 -64 57 -61 102 3 49 22 66 60 57 28 -7 41 -28 32 -52 -8 -20 -31 -19
-43 3 -9 14 -10 13 -11 -11 0 -16 7 -30 15 -33 26 -10 65 6 77 32 15 33 -10
87 -49 104 -28 13 -29 15 -28 89 0 54 -5 85 -18 109 -19 34 -51 43 -61 16 -11
-29 -6 -111 9 -154 17 -48 13 -61 -13 -42 -55 39 -80 51 -121 57 -26 3 -59 1
-74 -4 -63 -24 0 -77 105 -89 48 -6 62 -11 59 -22 -28 -114 0 -173 118 -240 8
-4 15 -21 16 -37 1 -15 3 -39 3 -52 1 -14 19 -41 42 -63 37 -34 46 -38 93 -38
33 0 63 7 83 19 53 32 78 113 54 175 -6 16 -6 26 0 26 14 0 110 -81 137 -117
l24 -31 -48 -22 c-84 -38 -222 -89 -282 -105 -75 -19 -114 -18 -175 3 -49 17
-49 17 -65 82 -9 36 -29 85 -44 110 -81 131 -113 180 -151 225 -23 28 -59 74
-80 103 -88 122 -215 159 -318 93 -87 -55 -89 -55 -175 -38 -77 16 -115 14
-140 -6 -26 -19 -12 -27 50 -27 34 0 84 -7 111 -15 80 -24 122 -20 147 15 34
45 69 48 145 10 130 -64 338 -311 375 -446 18 -66 17 -74 -13 -74 -11 0 -33
-13 -50 -30 -35 -36 -72 -39 -128 -10 -30 16 -40 26 -40 45 0 18 5 25 20 25
11 0 20 -4 20 -10 0 -5 -4 -10 -10 -10 -5 0 -10 -4 -10 -10 0 -16 37 -11 44 6
8 20 -11 54 -29 54 -10 0 -15 10 -15 30 0 39 -20 80 -38 80 -12 0 -14 -10 -9
-50 3 -27 4 -50 2 -50 -2 0 -16 5 -31 11 -34 12 -74 4 -74 -16 0 -8 12 -18 28
-22 l27 -7 -34 -9 c-45 -11 -86 16 -86 59 0 30 24 41 33 15 3 -10 0 -12 -11
-8 -11 4 -14 2 -10 -9 7 -19 39 -18 47 3 4 10 -1 28 -12 42 -13 18 -17 37 -15
61 4 37 -19 82 -34 67 -4 -5 -8 -29 -8 -53 0 -24 0 -44 -1 -44 0 0 -15 7 -32
16 -34 16 -78 16 -76 -1 0 -5 19 -19 42 -29 36 -18 40 -23 35 -47 -6 -31 9
-63 45 -94 34 -29 22 -50 -18 -30 -34 17 -56 19 -65 5 -10 -16 22 -41 60 -47
37 -6 46 -20 20 -30 -22 -8 -48 -60 -35 -68 14 -9 56 19 70 45 14 27 38 25 61
-5 11 -13 35 -27 55 -31 l35 -6 -25 -27 c-14 -15 -26 -35 -26 -44 0 -29 37
-19 65 17 16 22 37 36 53 38 21 2 28 9 30 31 2 19 -1 27 -12 27 -8 0 -18 -4
-21 -10 -3 -5 -1 -10 6 -10 10 0 10 -3 1 -12 -9 -9 -15 -9 -24 0 -21 21 4 47
49 50 34 3 43 -1 57 -23 9 -14 33 -33 52 -43 32 -15 35 -20 30 -47 -9 -45 -48
-79 -80 -71 -29 7 -35 36 -12 55 16 13 32 -2 21 -19 -3 -6 0 -10 8 -10 26 0
30 33 7 52 -12 10 -26 18 -32 18 -14 0 -58 -47 -58 -62 0 -8 -14 -14 -35 -15
-43 -2 -99 -33 -103 -56 -5 -24 53 -23 103 3 21 11 40 18 42 17 1 -2 -5 -22
-14 -46 -19 -49 -9 -114 19 -119 20 -4 41 53 36 100 -3 32 -2 33 40 36 40 3
42 2 42 -25 0 -15 9 -41 19 -56 15 -24 17 -35 8 -63 -15 -48 -42 -74 -78 -74
-27 0 -30 3 -27 28 2 16 9 27 18 27 9 0 14 -7 12 -19 -2 -11 1 -17 10 -14 19
7 21 43 4 57 -24 20 -66 5 -79 -28 -9 -24 -18 -30 -53 -34 -46 -5 -107 -42
-101 -61 6 -19 55 -18 103 3 54 24 63 22 40 -11 -20 -28 -21 -98 -1 -124 15
-19 15 -19 30 0 9 12 15 41 15 73 0 49 2 53 24 53 20 0 24 -6 30 -47 10 -70
52 -113 111 -113 20 0 25 -4 21 -17 -14 -51 -16 -82 -7 -106 25 -65 74 30 54
104 -6 21 -8 39 -6 39 2 0 19 -11 38 -25 18 -14 49 -29 69 -32 32 -5 36 -3 36
15 0 25 -50 62 -94 71 -22 5 -32 13 -34 29 -4 28 -47 61 -71 55 -27 -7 -35
-33 -16 -52 13 -14 15 -13 15 8 0 31 24 22 28 -11 6 -53 -67 -38 -88 18 -16
40 -12 71 14 109 14 20 27 49 31 65 4 17 11 30 16 30 13 0 11 -11 -6 -61 -17
-47 -12 -93 8 -86 24 8 57 70 57 108 0 22 2 39 4 39 2 0 20 -16 40 -35 42 -39
86 -47 86 -16 0 20 -57 75 -88 85 -13 4 -19 16 -20 37 -1 38 -18 59 -47 59
-28 0 -47 -22 -39 -44 8 -21 24 -21 24 0 0 23 24 11 28 -13 5 -33 -34 -40 -64
-12 -29 27 -32 85 -8 159 15 45 20 50 53 56 20 4 68 17 108 30 60 20 91 24
200 24 178 0 312 -24 409 -73 36 -17 44 -28 58 -71 8 -28 25 -80 36 -115 23
-73 26 -144 8 -159 -22 -17 -150 -44 -182 -38 -68 14 -104 94 -52 117 17 8 29
8 45 0 29 -16 27 -41 -4 -41 -33 0 -32 -18 2 -26 33 -9 67 27 57 60 -12 42
-44 59 -101 53 -37 -4 -53 -2 -53 6 0 7 -12 24 -25 39 -60 69 -155 104 -155
58 0 -27 61 -93 118 -127 l47 -27 -54 -8 c-108 -16 -217 -112 -151 -133 28 -9
79 10 135 50 l48 34 18 -37 c11 -21 38 -50 61 -66 39 -25 49 -27 103 -22 33 3
73 9 89 12 l28 7 -4 -104 c-3 -79 -9 -115 -25 -149 -12 -25 -24 -56 -28 -70
-4 -14 -18 -39 -31 -57 -42 -56 -25 -75 20 -23 50 60 86 155 108 283 11 67 29
141 39 164 24 54 24 71 -5 185 -28 112 -83 225 -126 261 -54 46 -95 52 -356
52 -225 0 -237 1 -175 13 36 7 119 31 184 53 260 86 403 108 762 118 225 6
277 11 313 26 24 9 46 14 50 11 4 -4 8 -40 10 -79 3 -62 1 -75 -18 -94 -23
-25 -69 -30 -88 -11 -16 16 -15 53 3 68 19 15 38 3 32 -21 -6 -23 6 -25 23 -4
21 25 -3 65 -39 65 -44 0 -73 -29 -74 -75 -1 -22 2 -47 6 -55 5 -11 -4 -22
-33 -38 -46 -26 -90 -86 -93 -128 -5 -67 85 -21 139 72 14 24 30 44 35 44 5 0
9 -17 9 -37 0 -76 65 -173 116 -173 26 0 13 81 -22 132 -16 24 -32 48 -36 54
-5 7 10 22 37 40 47 29 85 89 85 133 0 13 -7 50 -16 83 -8 33 -14 61 -12 62
31 22 183 96 198 96 30 0 36 -27 11 -54 -18 -19 -21 -34 -21 -103 0 -67 3 -83
20 -98 11 -10 34 -39 50 -63 46 -70 39 -123 -30 -212 -40 -53 -61 -114 -54
-159 5 -34 3 -40 -23 -59 -16 -11 -45 -54 -66 -96 -43 -84 -104 -157 -178
-212 -49 -36 -50 -36 -71 -18 -59 52 -148 172 -148 201 0 10 10 8 40 -7 51
-26 95 -25 150 3 56 28 90 83 90 148 0 85 -68 152 -166 165 -88 11 -161 -28
-209 -111 -10 -17 -13 -17 -42 -2 -78 41 -110 129 -58 163 23 15 27 15 50 0
26 -17 30 -32 15 -56 -7 -12 -12 -12 -29 4 -21 19 -21 19 -21 -2 0 -20 26 -42
49 -42 16 0 51 42 51 61 0 33 -22 67 -54 84 -31 17 -32 18 -28 80 3 47 -1 73
-16 109 -49 110 -95 8 -56 -123 18 -61 13 -73 -19 -43 -51 48 -162 69 -203 37
-18 -15 -18 -16 11 -40 29 -24 100 -45 151 -45 19 0 24 -4 20 -17 -15 -52 -16
-74 -6 -112 12 -47 54 -92 110 -118 l38 -18 4 -80 c4 -102 28 -152 120 -251
l69 -75 -17 -27 c-30 -48 -57 -72 -144 -129 -176 -116 -233 -181 -246 -280 -7
-57 -21 -66 -67 -42 -28 15 -37 28 -37 57 0 18 5 23 22 20 12 -2 24 -9 26 -17
3 -10 0 -12 -12 -8 -12 5 -16 3 -14 -5 3 -7 15 -13 29 -13 49 0 28 66 -25 79
-16 4 -25 16 -30 36 -6 34 -51 84 -66 75 -17 -11 -11 -49 14 -86 l25 -36 -47
5 c-37 3 -53 0 -71 -15 -37 -30 -19 -47 45 -40 52 5 53 5 63 -26 16 -44 39
-66 77 -73 19 -3 31 -10 28 -15 -3 -5 -42 -28 -87 -50 -45 -23 -107 -56 -137
-74 -188 -112 -270 -163 -311 -192 -60 -43 -241 -129 -299 -142 -66 -15 -88
-13 -100 9 -8 16 -2 38 36 117 35 76 48 116 55 177 5 44 11 81 12 82 1 1 65 7
142 12 77 6 156 17 175 23 46 16 128 75 135 98 3 9 30 46 60 82 30 35 55 73
55 84 0 11 14 40 31 65 27 40 28 45 13 49 -26 5 -60 -40 -68 -89 -5 -35 -19
-55 -71 -109 -36 -36 -72 -76 -80 -88 -9 -13 -26 -23 -38 -23 -12 0 -46 -9
-75 -20 -67 -26 -133 -25 -208 0 -68 24 -100 20 -116 -15 -12 -27 -28 -33 -28
-11 0 25 -41 66 -65 66 -14 0 -40 -14 -58 -30 -19 -17 -45 -30 -57 -30 -59 0
-150 101 -150 167 0 27 6 37 40 58 51 32 71 64 72 114 1 53 -12 67 -71 81 -65
15 -121 -5 -121 -45 0 -33 -41 -75 -74 -75 -38 0 -56 35 -56 106 0 54 -3 63
-29 88 -109 100 -103 93 -97 139 3 23 8 61 12 84 6 39 3 46 -29 78 -37 37 -87
48 -87 20 0 -8 7 -15 15 -15 8 0 25 -10 36 -21 20 -20 21 -29 15 -119 l-6 -96
43 -51 c25 -29 49 -69 55 -94 6 -24 16 -63 22 -86 9 -35 18 -47 50 -63 22 -11
49 -20 61 -20 28 0 97 40 126 74 13 14 30 26 38 26 29 0 27 -29 -4 -62 -41
-44 -65 -108 -57 -152 8 -42 97 -180 122 -190 11 -4 52 -10 92 -13 39 -3 72
-9 72 -13 0 -5 15 -31 34 -58 l34 -51 -60 -138 c-32 -76 -60 -153 -61 -172 -3
-53 12 -57 165 -44 104 9 153 18 223 43 103 36 277 121 368 180 33 22 64 40
67 40 10 0 77 -73 89 -97 28 -55 -4 -121 -52 -109 -34 8 -53 41 -36 62 16 20
27 18 34 -7 5 -15 10 -18 18 -10 18 18 -8 61 -38 61 -30 0 -65 -32 -65 -60 0
-30 27 -78 50 -90 19 -10 19 -12 3 -43 -20 -40 -23 -135 -4 -171 19 -34 27
-33 51 7 16 25 20 50 20 115 l0 84 44 -45 c66 -68 186 -97 186 -46 0 24 -68
73 -125 90 -43 13 -57 30 -35 44 5 3 15 25 21 48 15 58 -2 108 -59 169 -54 58
-62 46 99 162 122 88 174 146 203 226 10 28 24 50 31 50 6 0 24 -11 39 -25 34
-32 33 -78 -1 -83 -21 -3 -27 5 -20 25 1 5 8 6 16 5 7 -2 11 2 9 10 -6 18 -39
23 -49 6 -15 -23 -10 -57 11 -70 16 -10 20 -24 20 -61 0 -53 13 -87 34 -87 19
0 27 51 16 92 -12 40 -13 57 -2 42 28 -40 142 -64 142 -29 0 18 -50 45 -84 45
-22 0 -24 3 -23 48 2 54 -21 94 -65 113 -36 15 -35 23 5 50 17 13 109 80 202
149 94 70 205 151 248 180 43 29 85 63 94 76 8 13 24 58 35 100 22 90 53 154
72 154 7 0 26 -13 42 -28 52 -49 121 -91 196 -120 67 -26 73 -30 80 -62 16
-75 -21 -141 -71 -125 -25 8 -37 41 -21 60 18 21 30 18 30 -6 0 -12 5 -19 13
-17 17 6 21 36 7 53 -36 43 -106 -12 -96 -75 5 -32 2 -37 -29 -57 -34 -22 -75
-87 -75 -118 0 -9 9 -15 24 -15 26 0 90 64 106 106 14 37 30 29 30 -17 0 -22
5 -50 11 -62 19 -37 62 -77 82 -77 17 0 19 5 14 39 -3 22 -18 59 -34 82 l-30
43 30 20 c54 37 72 71 71 136 l-1 58 71 5 c55 4 93 15 171 50 194 87 420 137
619 137 132 0 196 -13 276 -56 133 -72 75 -120 -262 -217 -171 -49 -191 -57
-231 -94 -92 -85 -193 -131 -434 -199 -279 -78 -374 -135 -443 -267 -18 -34
-34 -64 -36 -65 -6 -8 -107 54 -125 76 -34 43 -19 122 22 122 32 0 59 -19 59
-41 0 -28 -28 -36 -45 -13 -13 17 -14 17 -15 2 0 -33 12 -48 40 -48 34 0 60
28 60 64 0 30 -48 86 -73 86 -11 0 -13 14 -10 73 5 82 -16 140 -53 145 -38 5
-45 -78 -15 -165 10 -29 16 -55 13 -57 -2 -3 -22 8 -43 24 -68 49 -188 64
-203 25 -12 -32 43 -64 127 -73 66 -8 65 -6 54 -67 -4 -18 -11 -20 -64 -17
-41 3 -70 -1 -91 -12 -31 -16 -74 -65 -85 -99 -6 -16 -10 -15 -49 9 -45 28
-131 44 -142 26 -10 -16 34 -63 78 -83 23 -10 61 -19 86 -19 l45 -1 -30 -21
c-92 -66 -137 -148 -82 -148 34 0 101 52 121 94 16 34 19 36 54 30 48 -7 92
24 92 65 0 46 -43 69 -70 36 -11 -13 -8 -15 14 -15 30 0 36 -24 9 -38 -22 -12
-58 1 -67 23 -9 23 19 71 46 79 13 3 46 6 74 6 49 0 55 -3 101 -48 27 -27 71
-57 96 -68 27 -11 47 -26 47 -34 0 -8 -9 -43 -19 -78 -11 -34 -22 -82 -26
-105 -11 -66 -17 -69 -89 -42 -51 19 -74 22 -127 18 -35 -3 -80 -14 -100 -24
-44 -22 -117 -101 -166 -180 l-36 -59 -40 23 c-21 12 -56 36 -76 54 l-36 32
40 1 c45 0 98 28 116 61 19 36 14 94 -10 128 -61 85 -211 50 -240 -55 -33
-120 7 -205 132 -280 31 -20 57 -40 57 -45 0 -15 -75 -59 -126 -75 -29 -9 -87
-14 -150 -13 -94 1 -105 -1 -160 -30 -33 -16 -81 -35 -108 -41 -66 -14 -100
-34 -131 -74 -42 -55 -167 -76 -219 -35 -30 24 -37 83 -10 93 29 11 62 6 68
-10 9 -23 -3 -36 -25 -29 -25 8 -25 -11 1 -25 32 -17 60 4 60 44 0 49 -30 71
-96 71 -50 0 -56 2 -74 32 -23 38 -83 80 -128 89 -30 6 -32 5 -32 -21 0 -34
73 -109 127 -131 42 -18 34 -34 -18 -34 -69 0 -174 -70 -166 -110 5 -29 81
-17 141 23 31 21 58 37 60 37 2 0 7 -11 10 -24 8 -32 67 -83 113 -95 28 -8 53
-7 106 5 68 16 69 16 89 -6 33 -35 97 -60 158 -60 30 0 61 4 69 9 26 17 0 31
-57 31 -105 0 -155 58 -98 115 13 13 43 29 67 35 101 27 119 34 140 56 21 23
29 24 156 24 74 0 155 5 181 12 72 18 151 104 235 255 37 68 76 127 87 133 62
33 175 -13 324 -132 47 -38 93 -68 104 -68 10 0 27 9 38 21 17 19 19 35 16
138 -2 100 0 119 16 140 l19 24 82 -29 c70 -25 82 -32 78 -49 -2 -11 -10 -47
-17 -80 -8 -35 -10 -77 -6 -98 8 -44 54 -99 96 -117 34 -14 35 -17 16 -39 -8
-9 -26 -38 -40 -65 -47 -88 -26 -140 35 -88 40 33 68 95 69 150 0 23 4 42 9
42 5 0 21 -20 35 -44 51 -87 146 -141 146 -83 0 36 -54 110 -99 135 -38 22
-39 23 -30 57 19 67 -29 124 -89 108 -29 -7 -40 -49 -18 -71 15 -15 16 -14 16
11 0 20 5 27 19 27 11 0 23 -9 26 -20 17 -55 -36 -88 -83 -53 -34 25 -43 71
-30 146 l10 59 32 -7 c17 -3 70 -12 117 -20 107 -16 120 -23 153 -79 14 -24
60 -74 101 -112 42 -37 83 -80 91 -95 20 -39 29 -156 15 -205 -13 -49 -22 -54
-116 -61 -103 -8 -158 -48 -140 -102 6 -21 33 -31 83 -31 27 0 32 -4 32 -23 0
-28 -64 -122 -103 -151 -43 -32 -106 -26 -202 19 -44 21 -104 48 -132 61 -29
13 -53 29 -53 36 0 7 7 38 15 68 18 67 19 149 3 202 -25 85 -131 168 -214 168
-49 0 -127 -48 -149 -91 -43 -83 8 -184 102 -204 46 -9 117 24 140 67 l18 33
3 -60 c2 -33 -2 -85 -8 -116 l-12 -55 -146 -19 c-233 -30 -272 -30 -323 -4
-75 38 -180 111 -233 162 -58 55 -83 70 -143 86 -56 15 -80 3 -88 -47 -14 -85
-12 -82 -58 -82 -26 -1 -77 -16 -137 -41 -152 -65 -252 -99 -296 -99 -23 0
-62 11 -93 26 -71 36 -127 30 -251 -24 -106 -47 -120 -49 -156 -25 -18 12 -58
18 -142 22 l-116 6 -9 35 c-5 19 -24 51 -43 70 -19 20 -34 41 -34 47 0 6 9 39
20 73 30 95 27 148 -12 198 -77 95 -126 115 -263 106 -76 -5 -104 -3 -110 6
-5 8 19 39 68 89 89 91 103 116 119 216 27 172 -35 245 -206 245 l-85 0 -36
46 c-46 62 -45 70 10 66 39 -4 48 0 76 27 27 28 31 37 26 69 -9 53 -46 82
-105 82 -53 0 -85 -18 -106 -58 -36 -71 -27 -147 24 -206 17 -18 30 -38 30
-43 0 -16 -133 -74 -195 -83 -33 -6 -91 -10 -128 -10 l-68 0 53 43 c89 73 120
156 83 227 -20 39 -12 53 46 81 31 14 67 43 92 73 35 42 43 59 49 110 4 34 10
80 14 104 6 41 4 44 -42 87 l-49 45 18 31 c15 27 16 36 5 65 -9 27 -10 42 0
66 14 39 10 46 -27 40 -47 -7 -57 -25 -42 -80 10 -40 9 -54 -4 -85 -14 -33
-14 -40 0 -67 8 -16 28 -37 45 -47 31 -18 37 -41 19 -74 -7 -14 -7 -29 2 -54
17 -46 5 -59 -110 -112 -51 -24 -105 -52 -119 -63 -18 -15 -40 -20 -84 -20
-50 0 -63 4 -84 25 -45 45 -19 106 39 91 38 -9 37 -44 0 -48 -28 -3 -28 -3 -6
-16 27 -15 52 -6 64 24 23 61 -59 117 -121 84 -16 -9 -22 -6 -34 18 -33 64
-142 130 -169 103 -21 -21 22 -82 90 -126 34 -22 63 -43 63 -47 0 -5 -19 -8
-42 -8 -56 -1 -117 -29 -151 -70 -31 -37 -31 -53 2 -58 36 -5 64 5 121 43 41
27 55 33 61 23 5 -7 9 -16 9 -20 0 -4 13 -23 30 -41 39 -45 103 -64 162 -49
37 10 45 9 55 -5 22 -29 26 -78 9 -111 -9 -17 -16 -37 -16 -45 0 -8 -35 -30
-78 -50 -176 -82 -240 -94 -312 -57 -22 11 -55 20 -75 20 -51 0 -70 13 -89 60
-22 56 1 104 33 67 15 -18 2 -30 -17 -15 -12 10 -14 9 -11 -7 3 -14 12 -20 29
-20 23 0 25 4 25 41 0 22 6 48 12 56 7 8 16 30 19 47 6 29 4 33 -12 30 -10 -2
-28 -22 -38 -44 -12 -24 -21 -34 -24 -25 -7 23 -35 52 -60 61 -22 8 -22 10 -7
25 10 10 14 26 11 39 -4 16 3 30 24 50 29 28 41 75 20 75 -14 0 -60 -46 -60
-60 0 -19 -18 -10 -24 13 -6 25 -41 67 -56 67 -17 0 -11 -41 10 -70 l19 -27
-25 -24 c-22 -21 -25 -31 -22 -78 2 -37 -1 -56 -9 -58 -7 -3 -13 0 -13 5 0 17
-51 72 -61 66 -17 -10 -9 -42 17 -73 28 -33 25 -38 -31 -43 -20 -2 -31 -9 -33
-21 -3 -17 2 -19 50 -16 63 4 77 -2 71 -33 -3 -14 6 -38 21 -61 l25 -37 -32 0
c-41 0 -62 -13 -54 -34 7 -18 43 -21 81 -7 18 7 28 6 36 -5 16 -18 44 -18 60
2 11 12 10 18 -3 32 -16 15 -17 15 -17 -1 0 -17 -11 -22 -23 -11 -11 11 5 34
25 34 35 0 58 -19 58 -49 0 -16 6 -34 14 -41 20 -16 302 -62 346 -56 19 2 62
12 95 21 43 12 109 17 235 19 174 2 175 2 239 34 77 38 140 49 190 33 50 -14
66 -46 57 -108 -4 -26 -11 -79 -15 -117 -8 -87 -30 -109 -127 -125 -90 -16
-122 -34 -132 -74 -6 -25 -16 -35 -48 -45 -58 -20 -123 -10 -152 23 -29 34
-25 65 10 84 24 14 28 14 47 -3 25 -23 19 -36 -16 -36 -21 0 -24 -2 -13 -15
18 -21 57 -19 70 4 17 33 11 58 -17 81 -23 18 -37 21 -75 17 -45 -4 -49 -2
-68 29 -34 59 -145 116 -165 84 -16 -26 54 -106 122 -138 18 -9 33 -19 33 -22
0 -4 -22 -10 -50 -13 -70 -8 -160 -70 -160 -109 0 -41 59 -31 144 22 52 33 66
37 66 16 0 -21 47 -74 81 -91 36 -19 100 -19 163 0 42 13 51 13 69 0 27 -19
81 -19 154 0 79 21 189 20 232 -3 60 -30 72 -57 74 -163 2 -106 -9 -136 -64
-164 -24 -13 -30 -22 -27 -43 3 -28 13 -33 126 -62 34 -9 42 -15 42 -34 0 -13
9 -31 21 -42 18 -16 37 -19 139 -19 109 0 120 -2 142 -22 30 -28 84 -30 153
-7 46 16 49 16 62 -2 36 -49 42 -139 12 -178 -42 -54 -121 -16 -89 43 14 27
34 23 38 -8 3 -18 6 -20 18 -10 29 24 3 69 -42 69 -53 0 -83 -76 -53 -132 10
-18 8 -24 -15 -41 -51 -37 -98 -145 -75 -173 10 -12 15 -12 38 3 37 24 58 51
83 111 23 55 38 67 38 30 0 -58 85 -168 131 -168 46 0 27 70 -40 143 l-40 44
30 22 c69 51 89 142 49 230 -32 70 -28 76 50 72 44 -3 68 -22 89 -72 17 -43
24 -49 49 -49 25 0 75 28 92 52 16 22 58 24 120 7 48 -14 98 -19 196 -19 97 0
139 -4 160 -15 16 -8 47 -15 70 -15 22 0 43 -3 47 -6 10 -11 -30 -80 -63 -108
-36 -29 -81 -34 -104 -10 -30 30 -11 84 29 84 29 0 32 -16 8 -42 -18 -20 -4
-25 28 -8 43 23 10 90 -45 90 -29 0 -86 -50 -86 -74 0 -9 -20 -12 -62 -12 -44
0 -75 -5 -102 -19 -49 -25 -68 -51 -46 -65 25 -16 107 -11 161 10 56 23 71 20
46 -8 -28 -31 -47 -89 -47 -144 0 -65 12 -88 37 -72 31 19 53 75 53 138 0 56
1 58 23 52 12 -3 41 -6 65 -6 l42 0 0 -48 c0 -28 8 -64 20 -87 l20 -40 -30
-61 c-35 -72 -81 -104 -126 -89 -38 14 -51 37 -36 69 8 18 19 26 37 26 27 0
33 -18 13 -38 -17 -17 -3 -25 21 -12 45 24 15 90 -40 90 -32 0 -89 -46 -89
-72 0 -11 -15 -14 -62 -14 -67 1 -132 -24 -152 -57 -25 -40 69 -50 156 -17 29
11 56 20 61 20 12 0 8 -15 -11 -36 -52 -55 -57 -214 -8 -214 25 0 56 81 56
144 0 56 1 58 23 52 12 -3 30 -6 40 -6 14 0 17 -10 17 -63 0 -83 30 -143 85
-174 22 -13 50 -23 63 -23 23 0 31 -26 13 -46 -28 -30 -32 -143 -6 -164 37
-31 96 113 77 185 -14 54 -6 61 31 24 59 -60 111 -85 165 -80 22 2 13 30 -23
69 -30 34 -70 58 -127 76 -13 4 -18 16 -18 39 0 38 -29 82 -61 92 -32 10 -71
-21 -67 -53 2 -15 10 -28 19 -30 13 -2 15 3 12 23 -4 17 -1 25 9 25 42 0 54
-73 14 -91 -58 -27 -116 43 -116 140 0 49 3 57 36 89 20 20 47 60 61 90 17 40
28 52 39 48 9 -3 17 -6 20 -6 2 0 -12 -26 -31 -58 -36 -58 -48 -133 -25 -147
35 -22 110 96 110 172 0 49 13 55 34 16 29 -55 113 -120 142 -109 44 17 -37
144 -103 162 -20 5 -23 13 -23 60 0 41 -5 59 -20 74 -22 22 -69 27 -88 8 -17
-17 -15 -53 3 -68 13 -11 15 -8 15 13 0 31 16 43 35 27 37 -31 3 -97 -44 -85
-53 13 -66 38 -65 123 0 65 6 88 33 147 18 39 34 71 36 73 1 1 36 -4 76 -12
41 -8 128 -24 194 -36 147 -25 352 -67 365 -75 22 -14 -26 -125 -64 -151 -30
-19 -85 -15 -99 7 -14 23 -1 66 24 72 25 7 37 -17 19 -38 -10 -12 -9 -15 7
-15 42 0 57 44 25 73 -43 39 -116 8 -129 -55 -5 -25 -10 -28 -50 -28 -50 0
-107 -21 -140 -52 -30 -28 -29 -46 2 -54 35 -9 75 0 141 32 30 14 57 24 60 21
3 -2 -5 -21 -17 -41 -27 -46 -30 -142 -5 -180 9 -14 21 -26 27 -26 21 0 40 72
38 139 l-3 66 51 1 c87 2 151 56 175 151 6 24 14 46 19 48 4 3 42 -16 84 -41
123 -75 165 -155 110 -209 -21 -22 -28 -23 -49 -14 -25 12 -36 34 -29 57 6 17
32 15 39 -3 9 -21 24 -19 24 4 0 28 -37 51 -64 42 -35 -13 -49 -54 -32 -94 7
-19 24 -41 36 -50 21 -14 21 -16 5 -47 -19 -36 -22 -138 -5 -169 32 -60 74 9
72 121 -1 43 1 78 4 78 2 0 18 -15 35 -34 57 -65 189 -105 189 -56 0 29 -48
68 -112 92 -32 11 -58 23 -58 27 0 3 7 15 15 25 8 11 18 41 21 68 4 26 8 48 9
48 2 0 41 -17 87 -38 156 -72 259 -100 393 -105 133 -6 218 -25 381 -87 109
-41 191 -91 265 -161 78 -75 229 -299 249 -369 15 -52 12 -126 -5 -167 -19
-44 -30 -53 -71 -53 -44 0 -72 -26 -108 -101 -29 -59 -33 -64 -61 -61 -65 5
-94 -7 -121 -51 -34 -55 -53 -70 -71 -56 -7 6 -13 24 -13 39 0 56 -58 76 -117
40 -44 -26 -63 -68 -63 -137 0 -83 7 -101 45 -113 45 -15 82 -4 102 31 9 16
23 31 30 33 15 6 43 -31 43 -59 0 -37 37 -85 66 -85 34 0 57 13 127 71 37 31
64 46 75 43 9 -3 29 -10 44 -16 42 -16 111 15 162 74 l43 49 37 -113 c44 -130
57 -261 36 -361 -17 -82 -77 -195 -166 -312 -191 -252 -261 -371 -294 -500
-24 -92 -40 -265 -40 -421 0 -194 -35 -338 -104 -429 -17 -22 -69 -78 -116
-125 -47 -47 -98 -110 -114 -140 -103 -189 51 -298 462 -329 134 -11 380 0
482 20 191 37 457 172 526 266 44 60 39 97 -25 164 -51 54 -84 117 -107 199
-25 88 -23 329 4 539 19 144 23 160 65 245 51 100 193 332 271 441 28 39 87
111 131 162 129 147 221 318 265 488 11 44 26 139 32 210 7 72 17 133 22 137
22 15 49 7 75 -21 15 -16 49 -37 77 -46 51 -18 225 -32 267 -21 35 8 53 56 37
97 -14 33 -54 61 -200 144 -113 63 -231 147 -268 190 -57 64 -76 120 -76 220
0 82 4 100 45 205 24 63 51 125 59 136 16 23 87 74 102 74 15 0 38 -67 38
-113 0 -51 -22 -77 -63 -77 -20 0 -28 6 -33 24 -7 29 1 46 22 46 8 0 14 -10
14 -22 1 -22 1 -22 15 -4 21 27 3 56 -35 56 -42 0 -65 -37 -56 -91 6 -36 3
-42 -24 -66 -49 -41 -79 -113 -55 -133 18 -15 69 30 105 94 17 28 30 49 31 46
0 -3 2 -20 5 -38 6 -45 28 -85 64 -116 36 -30 48 -32 56 -11 10 25 -4 61 -42
111 -23 30 -32 50 -25 52 6 2 25 15 42 29 l30 26 32 -31 c18 -17 45 -34 61
-38 34 -8 56 -54 56 -119 0 -50 -25 -85 -60 -85 -22 0 -44 34 -36 56 7 19 36
18 36 -2 0 -20 24 -13 28 8 4 19 -24 48 -44 48 -8 0 -26 -12 -41 -26 -25 -25
-27 -47 -8 -96 4 -11 0 -18 -14 -23 -50 -15 -109 -155 -67 -155 24 0 71 46 97
94 28 54 39 58 39 15 0 -38 13 -65 53 -107 39 -41 67 -43 67 -4 0 26 -13 51
-57 109 l-21 29 29 16 c28 16 29 16 49 -9 39 -49 81 -73 130 -73 25 0 55 7 66
15 30 23 44 18 60 -22 32 -76 104 -124 104 -69 0 42 -28 93 -72 130 l-42 36
43 0 c55 0 127 18 142 36 33 40 -72 60 -148 29 -31 -13 -38 -13 -52 -1 -32 29
-72 38 -97 21 -27 -17 -32 -56 -9 -75 20 -16 40 -3 24 16 -9 11 -9 18 -1 26
14 14 38 4 52 -21 8 -17 7 -24 -10 -41 -35 -35 -98 -21 -149 34 -20 21 -24 36
-22 70 1 24 -5 64 -14 90 -15 44 -14 66 4 66 4 0 13 -24 20 -54 19 -86 71
-137 84 -84 11 44 -14 118 -52 152 -29 26 -18 36 26 24 47 -13 132 -5 143 13
27 42 -96 73 -174 43 -7 -3 -18 6 -25 20 -8 14 -27 30 -42 37 -24 9 -33 9 -55
-5 -33 -22 -31 -69 4 -74 12 -2 22 1 22 7 0 6 -4 11 -10 11 -5 0 -10 7 -10 15
0 18 31 20 48 3 19 -19 14 -46 -12 -63 -53 -35 -119 19 -166 134 -17 40 -30
79 -30 86 0 8 17 23 39 35 21 12 74 61 117 109 94 102 143 151 152 151 4 0 7
-24 7 -53 0 -64 30 -115 87 -147 43 -24 45 -30 19 -54 -25 -23 -63 -112 -59
-139 5 -36 41 -33 73 5 37 44 55 89 55 139 0 23 4 39 10 37 6 -2 27 -28 48
-58 69 -100 152 -120 122 -30 -14 43 -90 120 -117 120 -11 0 -12 6 -6 23 22
65 -8 127 -62 127 -28 0 -38 -5 -47 -25 -8 -19 -8 -28 2 -40 16 -19 31 -20 24
0 -3 8 -3 19 1 25 11 17 45 -8 45 -33 0 -78 -108 -54 -123 27 -4 27 15 145 28
166 3 5 26 -6 51 -25 38 -30 54 -35 97 -35 34 0 63 7 85 20 18 11 36 20 40 20
4 0 16 -21 26 -47 24 -57 72 -113 97 -113 56 0 1 151 -70 193 -17 10 -31 22
-31 28 0 5 32 9 70 9 111 0 194 54 124 80 -41 16 -102 12 -153 -11 l-49 -20
-25 25 c-48 48 -137 28 -137 -30 0 -27 19 -44 50 -44 l25 0 -25 20 c-29 22
-17 44 20 38 54 -8 52 -81 -3 -96 -44 -13 -92 8 -143 61 -41 43 -42 44 -32 88
5 24 13 67 16 94 l7 50 97 5 c70 4 101 9 115 22 10 9 38 27 63 40 24 13 54 38
65 55 11 18 23 32 26 33 11 0 19 -75 8 -79 -5 -1 -19 -13 -31 -25 -56 -58 -78
-136 -39 -136 22 0 75 57 99 106 20 43 32 43 32 1 0 -53 68 -137 111 -137 22
0 2 80 -30 120 -33 42 -39 60 -18 60 8 0 24 11 37 25 l24 25 31 -30 c18 -17
45 -34 61 -39 34 -9 55 -45 62 -108 6 -60 -17 -95 -61 -91 -28 3 -32 7 -32 32
0 37 22 46 34 14 8 -20 10 -21 16 -6 12 31 1 53 -28 56 -47 6 -70 -24 -64 -81
4 -43 2 -50 -24 -67 -28 -21 -69 -93 -69 -123 0 -10 8 -17 19 -17 30 0 70 38
98 93 l26 52 12 -48 c14 -54 37 -90 78 -121 20 -15 30 -17 38 -9 16 16 5 53
-37 113 -34 49 -35 52 -17 66 27 20 35 18 75 -26 60 -63 108 -69 208 -26 12 5
19 -3 29 -29 15 -43 67 -105 87 -105 10 0 14 12 14 38 0 44 -40 113 -77 133
-38 20 -27 29 37 29 93 0 153 42 101 70 -29 15 -81 12 -127 -9 l-40 -18 -28
23 c-37 33 -81 32 -103 -2 -12 -19 -14 -30 -6 -43 12 -18 53 -28 53 -12 0 6
-7 11 -16 11 -22 0 -11 24 13 28 30 4 48 -23 35 -52 -22 -48 -82 -42 -146 14
-33 29 -36 37 -36 85 0 29 -7 71 -14 93 -9 25 -11 44 -5 47 15 10 29 -5 29
-31 0 -55 47 -128 75 -118 34 13 11 124 -35 172 -12 13 -20 26 -17 29 3 3 29
0 57 -6 65 -14 133 1 128 27 -6 30 -48 43 -125 39 -40 -2 -73 0 -73 5 0 18
-42 48 -68 48 -51 0 -81 -54 -43 -77 23 -14 35 -5 19 14 -16 20 9 35 34 22 24
-13 23 -56 -1 -69 -37 -19 -64 -11 -106 34 -52 54 -97 174 -83 218 13 39 83
69 304 129 104 28 196 53 205 56 20 6 82 -71 99 -122 21 -64 -37 -129 -81 -89
-23 21 -25 47 -3 64 13 11 16 10 21 -8 7 -30 23 -28 23 3 0 36 -40 54 -73 32
-14 -9 -27 -27 -29 -41 -6 -28 12 -75 35 -94 14 -12 13 -18 -10 -62 -30 -57
-35 -142 -10 -167 33 -33 77 52 77 149 0 52 15 71 29 36 20 -50 115 -118 165
-118 34 0 41 16 20 48 -22 34 -37 46 -97 77 l-47 25 21 30 c12 16 25 46 28 67
7 44 23 50 119 52 54 1 66 -2 87 -24 45 -44 26 -100 -32 -93 -21 2 -29 9 -31
27 -3 21 -1 23 22 17 31 -8 35 9 7 24 -29 15 -39 13 -57 -15 -36 -55 20 -113
97 -101 32 5 39 3 44 -15 10 -29 63 -87 96 -105 105 -54 95 43 -12 119 -33 22
-59 45 -59 49 0 4 21 8 48 8 79 1 172 56 172 103 0 31 -87 18 -151 -22 -28
-17 -52 -31 -54 -31 -1 0 -6 11 -9 24 -10 39 -53 83 -100 101 -39 15 -51 15
-119 3 l-76 -15 -35 43 c-20 24 -36 45 -36 48 0 3 23 17 52 31 28 14 82 54
118 89 37 35 98 85 136 111 38 27 87 64 108 83 l39 35 13 -49 c9 -37 23 -59
54 -86 24 -21 49 -38 56 -38 19 0 18 -7 -11 -44 -76 -99 -71 -213 7 -140 43
41 68 96 68 149 0 55 13 57 40 8 36 -70 105 -127 138 -116 37 13 -18 114 -88
161 -32 22 -35 27 -32 68 6 76 -43 123 -93 90 -28 -19 -32 -47 -10 -66 13 -11
15 -8 15 15 0 19 4 26 16 23 28 -5 39 -33 26 -62 -14 -32 -49 -34 -85 -6 -59
47 -43 159 38 260 28 36 73 93 99 128 26 34 50 62 55 62 4 0 25 -18 46 -41 22
-22 56 -50 75 -62 35 -22 70 -58 102 -106 36 -54 13 -141 -37 -141 -29 0 -59
39 -49 64 9 22 35 20 41 -4 8 -30 23 -24 23 9 0 45 -66 59 -94 19 -22 -31 -20
-60 8 -101 l24 -35 -25 -49 c-26 -55 -35 -145 -14 -166 30 -30 77 46 87 141 7
63 17 78 29 42 17 -54 105 -120 160 -120 64 0 27 71 -64 122 l-59 33 23 29
c21 26 32 30 85 34 48 4 65 1 80 -13 39 -36 11 -98 -33 -74 -23 13 -22 29 3
29 27 0 26 17 -2 26 -15 4 -25 1 -35 -12 -32 -44 0 -84 68 -84 38 0 46 -4 61
-30 28 -49 128 -95 128 -59 0 25 -36 69 -77 94 -23 16 -43 32 -43 36 0 5 17 9
38 9 49 0 132 50 132 80 0 31 -56 26 -113 -10 -55 -34 -57 -35 -57 -15 0 8
-16 30 -35 50 -33 33 -40 35 -100 35 -65 0 -65 0 -65 28 0 15 -13 49 -30 75
-16 26 -30 51 -30 55 0 7 61 45 64 40 1 -2 12 -26 25 -55 13 -29 39 -67 58
-84 31 -31 34 -32 50 -17 14 15 14 22 3 62 -13 49 -82 136 -106 136 -8 0 -14
5 -14 10 0 6 20 10 45 10 67 0 141 19 161 42 18 19 18 20 -1 34 -28 21 -123
18 -169 -6 l-39 -19 -34 29 c-42 37 -81 39 -112 6 -28 -29 -23 -71 9 -81 29
-9 45 4 24 20 -20 14 -13 45 11 45 19 0 55 -35 55 -54 0 -21 -49 -56 -79 -56
-33 0 -86 32 -128 78 -33 36 -40 56 -24 66 4 3 32 45 60 94 58 99 76 119 176
187 39 26 78 55 88 63 16 15 22 12 70 -36 80 -78 138 -91 219 -48 l45 24 22
-52 c25 -60 76 -118 100 -114 12 3 15 14 14 48 -3 52 -42 114 -91 145 -17 11
-31 23 -32 28 0 4 30 7 68 7 44 0 81 7 110 20 44 20 52 39 27 60 -21 18 -147
8 -180 -14 -26 -17 -27 -17 -51 8 -48 47 -114 43 -134 -10 -12 -32 -3 -53 27
-60 30 -8 44 4 20 17 -37 21 -5 60 33 39 17 -9 30 -31 30 -50 0 -21 -46 -50
-78 -50 -36 0 -94 35 -125 76 l-17 22 218 138 c119 75 268 172 330 215 62 44
115 79 118 79 2 0 4 -22 4 -49 0 -27 4 -60 9 -74 11 -29 61 -77 95 -91 l26
-11 -36 -52 c-39 -55 -57 -134 -34 -148 35 -22 120 104 120 177 0 48 10 48 35
2 44 -81 128 -140 150 -104 17 27 -52 127 -107 156 -26 13 -27 18 -21 59 7 52
-13 91 -51 101 -52 13 -89 -44 -50 -77 14 -11 16 -10 12 11 -2 19 2 25 16 25
31 0 42 -29 23 -59 -27 -41 -78 -31 -105 21 -15 28 -15 78 0 142 10 44 19 56
70 96 32 25 62 45 66 45 5 0 19 -12 33 -26 13 -15 42 -40 63 -55 49 -36 121
-40 179 -9 20 11 38 20 40 20 2 0 10 -18 17 -40 18 -56 77 -122 104 -118 48 7
5 132 -64 182 -22 17 -40 33 -40 37 0 4 32 7 72 8 46 1 84 7 107 18 39 20 45
31 31 53 -14 22 -125 20 -176 -3 l-41 -19 -27 27 c-21 21 -34 26 -68 23 -34
-2 -45 -8 -58 -30 -19 -35 -5 -62 36 -66 l29 -3 -24 19 c-28 22 -21 42 14 42
29 0 59 -39 49 -64 -4 -9 -20 -24 -36 -32 -24 -12 -36 -13 -65 -3 -34 11 -113
73 -113 88 0 4 50 49 111 101 60 51 116 98 122 104 7 7 53 40 102 74 50 34
133 95 185 136 52 42 100 74 105 73 6 -2 25 -25 42 -51 39 -58 44 -111 13
-144 -26 -27 -44 -28 -70 -2 -23 23 -25 41 -9 57 14 14 39 6 39 -13 0 -8 5
-14 10 -14 13 0 13 26 0 51 -23 42 -100 5 -100 -47 0 -27 29 -84 42 -84 14 0
9 -21 -11 -47 -29 -36 -46 -127 -31 -164 16 -36 22 -36 54 1 25 31 34 59 40
138 4 55 11 61 30 25 24 -45 66 -84 113 -105 45 -20 83 -17 83 7 0 24 -52 76
-107 107 l-53 30 25 30 c14 16 25 35 25 41 1 32 16 37 55 17 24 -12 59 -20 90
-20 49 0 51 -2 87 -51 48 -65 58 -111 31 -147 -11 -15 -28 -29 -37 -30 -22 -5
-56 26 -56 50 0 27 28 34 46 12 14 -18 14 -17 12 10 -4 41 -31 55 -66 36 -39
-22 -43 -86 -9 -126 l25 -28 -25 -38 c-33 -49 -44 -156 -19 -177 34 -28 74 36
83 135 3 35 10 67 14 70 5 3 15 -10 22 -29 34 -81 187 -154 187 -89 0 24 -54
79 -104 104 -23 11 -43 22 -44 24 -7 5 33 53 44 54 7 0 31 -9 55 -20 52 -23
129 -26 169 -5 15 8 41 30 57 49 l28 35 45 -46 c47 -48 75 -63 116 -63 76 0
-44 141 -131 153 -30 4 -48 27 -21 27 26 0 108 45 139 76 83 82 -49 85 -139 2
-36 -33 -46 -38 -63 -29 -33 18 -89 13 -111 -9 -24 -24 -26 -63 -4 -84 17 -18
24 -19 48 -10 22 9 20 24 -3 24 -27 0 -34 15 -15 34 30 30 74 10 74 -34 0 -45
-43 -73 -102 -66 -58 6 -118 33 -125 55 -16 52 -42 101 -72 134 -28 31 -31 40
-21 52 11 13 17 9 46 -34 77 -115 173 -126 115 -13 -24 47 -56 77 -104 97 -44
18 -48 35 -9 35 85 0 198 63 172 95 -25 30 -140 7 -187 -36 l-22 -21 -29 21
c-61 43 -137 16 -130 -45 4 -32 28 -50 54 -40 18 8 18 9 -4 19 -30 14 -24 41
10 45 36 4 65 -36 48 -67 -28 -54 -97 -55 -172 -3 -54 37 -128 111 -128 128 0
5 36 45 81 89 113 112 125 130 108 162 -13 24 -11 27 29 65 37 35 47 39 84 36
34 -2 45 -8 57 -30 14 -24 14 -28 -3 -47 -21 -23 -51 -27 -62 -9 -4 6 0 16 9
23 22 16 21 25 -1 25 -41 0 -57 -54 -24 -83 32 -29 80 -22 118 18 28 30 37 34
53 25 26 -14 134 -13 166 2 14 6 25 20 25 30 0 29 -46 41 -137 35 -46 -3 -83
-2 -83 1 0 3 16 20 35 39 56 54 85 193 40 193 -32 0 -77 -72 -91 -146 -5 -28
-10 -34 -23 -28 -9 4 -38 12 -64 18 -37 8 -46 14 -41 26 14 34 16 90 4 124
-11 34 -10 39 24 85 60 81 136 101 173 45 14 -22 14 -26 -1 -49 -18 -28 -53
-33 -63 -10 -3 9 2 22 13 31 18 14 17 14 -11 12 -26 -3 -30 -8 -33 -35 -2 -23
3 -35 20 -47 36 -25 67 -19 105 19 33 33 39 35 66 25 66 -22 171 -8 184 26 14
37 -66 59 -157 45 -67 -11 -80 -2 -39 28 40 30 69 93 69 154 0 40 -3 47 -20
47 -28 0 -78 -73 -86 -126 -3 -24 -9 -46 -13 -48 -3 -2 -21 3 -39 11 -26 10
-32 18 -27 31 4 9 9 44 12 78 8 87 -25 144 -104 179 l-31 14 34 63 c40 75 46
138 14 138 -45 0 -99 -93 -100 -172 0 -27 -3 -48 -7 -48 -5 1 -21 21 -37 46
-32 50 -101 106 -125 102 -50 -10 4 -117 78 -160 38 -22 40 -25 34 -60 -7 -45
15 -84 54 -99 50 -19 97 39 58 71 -13 11 -15 8 -15 -14 0 -28 -18 -34 -38 -14
-7 7 -12 21 -12 33 0 50 61 61 101 19 20 -21 24 -36 24 -82 0 -83 -9 -104 -55
-130 -22 -13 -57 -45 -76 -73 -20 -27 -40 -49 -44 -49 -24 0 -16 25 24 74 63
78 73 149 18 132 -46 -15 -98 -84 -116 -153 l-13 -48 -30 65 c-26 56 -80 120
-101 120 -51 -1 -30 -91 36 -159 42 -44 43 -47 32 -79 -24 -69 21 -136 78
-116 21 7 27 16 27 38 0 16 -6 31 -13 34 -9 3 -12 -3 -10 -14 2 -13 -3 -19
-17 -19 -14 0 -21 8 -23 26 -3 27 20 59 42 59 23 0 64 -40 71 -68 9 -43 -30
-153 -73 -207 l-38 -47 -190 1 c-174 2 -436 -16 -576 -39 -29 -4 -57 -5 -61
-1 -4 4 -5 26 -1 48 l6 41 56 7 c91 11 137 38 167 98 14 28 25 62 25 75 0 21
3 23 23 18 12 -4 51 -10 87 -13 75 -6 114 12 94 43 -23 38 -153 58 -209 32
-40 -18 -40 -3 0 46 53 65 78 166 41 166 -40 0 -116 -109 -116 -166 0 -17 -8
-23 -36 -27 -47 -8 -84 -42 -84 -78 0 -47 48 -77 78 -47 19 19 14 29 -13 22
-20 -5 -25 -2 -25 13 0 25 19 43 45 43 30 0 45 -19 45 -55 0 -51 -53 -90 -136
-100 -47 -5 -50 -4 -69 27 -24 39 -80 78 -111 78 -30 0 -30 6 1 72 29 62 34
135 9 145 -42 16 -101 -103 -90 -183 3 -24 2 -44 -2 -44 -4 0 -28 21 -52 46
-64 65 -127 93 -145 64 -18 -29 67 -124 128 -142 33 -10 37 -15 32 -35 -7 -30
18 -88 45 -103 47 -25 103 17 80 60 -14 27 -32 25 -28 -2 4 -28 -29 -32 -45
-6 -17 26 7 68 38 68 74 0 112 -84 89 -197 -6 -29 -11 -32 -88 -52 -46 -12
-127 -42 -182 -67 -54 -24 -104 -44 -112 -44 -18 0 -82 34 -110 58 -45 40 -50
122 -7 139 28 10 65 -14 65 -42 0 -27 -18 -33 -38 -13 -17 17 -25 3 -12 -21
12 -24 58 -29 78 -9 7 7 12 29 12 49 0 29 -7 43 -31 63 -17 14 -34 26 -38 26
-4 0 -8 33 -7 73 0 75 -15 121 -46 141 -28 17 -43 -8 -42 -72 0 -31 8 -77 17
-102 9 -24 14 -46 12 -48 -2 -2 -22 11 -44 28 -36 29 -50 34 -116 38 -64 4
-76 2 -81 -13 -4 -10 1 -24 12 -35 19 -19 119 -50 161 -50 20 0 22 -3 13 -19
-16 -31 -12 -103 8 -141 10 -19 40 -49 66 -67 l47 -32 -48 -31 c-87 -55 -257
-138 -328 -160 -89 -28 -215 -30 -300 -6 -33 10 -105 40 -160 66 -143 70 -234
161 -298 297 l-32 68 -3 219 -3 219 69 -5 c103 -8 162 -53 162 -125 0 -34 -8
-46 -37 -62 -32 -16 -60 -14 -83 9 -38 38 -14 84 32 59 28 -15 35 -3 13 21
-14 15 -29 20 -54 18 -74 -6 -81 -109 -11 -156 30 -21 43 -23 96 -19 l61 6 13
-41 c24 -80 167 -199 218 -180 18 6 15 47 -7 90 -20 39 -94 114 -149 151 -49
34 -37 47 44 43 87 -5 168 24 225 77 62 60 51 85 -36 83 -55 -1 -116 -24 -184
-66 -22 -14 -43 -26 -45 -26 -2 0 -8 15 -11 33 -4 17 -23 55 -41 83 -19 28
-34 53 -34 56 0 3 10 8 23 12 42 10 114 74 137 120 25 53 48 61 170 61 115 -1
170 -42 170 -128 0 -40 -15 -56 -63 -64 -27 -4 -39 -1 -56 16 -33 33 -23 56
22 55 41 -1 46 5 19 29 -58 53 -130 -21 -97 -99 19 -47 64 -67 136 -62 l58 4
16 -41 c20 -54 77 -121 134 -157 50 -31 73 -35 91 -13 29 35 -34 134 -132 207
-44 33 -65 55 -59 61 5 5 47 10 93 11 65 1 93 6 131 25 62 30 109 77 105 105
-3 18 -11 21 -64 24 -57 3 -69 -1 -149 -43 -48 -25 -89 -44 -90 -43 -1 2 -7
21 -14 43 -7 22 -14 45 -17 51 -2 6 32 34 76 63 89 58 126 104 139 176 10 53
-2 136 -24 167 l-15 23 85 17 c93 18 165 54 192 95 16 24 16 26 -2 39 -55 40
-213 -1 -283 -73 -56 -58 -76 -53 -55 14 19 62 22 198 5 240 -56 130 -147 -95
-97 -237 19 -53 20 -47 -15 -65 -72 -37 -104 -108 -75 -164 38 -75 135 -63
135 16 0 28 -16 30 -25 4 -13 -43 -65 -31 -65 15 0 29 30 61 65 70 36 9 69
-17 83 -64 10 -34 10 -47 -4 -81 -17 -44 -82 -107 -151 -148 -40 -23 -43 -23
-73 -8 -45 23 -118 29 -195 16 -72 -13 -80 -10 -90 29 l-6 25 98 0 c85 1 105
4 148 26 84 43 66 85 -40 96 -79 8 -136 -4 -201 -43 -32 -19 -61 -31 -66 -26
-5 5 4 36 21 72 55 116 63 226 18 254 -15 9 -23 6 -46 -20 -48 -53 -74 -137
-68 -221 4 -69 3 -73 -17 -73 -52 0 -126 -76 -126 -128 0 -31 28 -72 57 -83
33 -12 71 5 79 36 8 33 -2 44 -19 21 -21 -28 -51 -16 -55 21 -4 40 30 66 80
61 27 -2 36 -10 52 -41 16 -33 17 -45 7 -77 -17 -58 -83 -111 -178 -142 -110
-37 -187 -43 -223 -17 -15 11 -47 23 -71 26 -24 3 -49 10 -55 15 -7 5 -15 34
-19 66 -13 108 -40 140 -128 156 -39 7 -169 -13 -261 -40 -27 -8 -51 -14 -53
-14 -1 0 -10 17 -18 38 -18 41 -24 30 61 102 11 9 28 28 37 41 l17 23 30 -23
c43 -31 91 -37 131 -17 32 16 34 16 46 -1 7 -9 13 -22 13 -28 0 -16 49 -65 65
-65 10 0 15 11 15 35 0 27 -9 44 -43 80 l-44 45 44 0 c78 0 146 45 97 64 -28
11 -88 6 -118 -9 -27 -14 -31 -14 -51 5 -24 22 -65 26 -83 8 -17 -17 -15 -58
3 -65 22 -8 30 4 15 22 -10 12 -9 16 4 21 19 7 46 -12 46 -32 0 -21 -46 -47
-70 -39 -32 10 -90 65 -90 84 0 9 -8 33 -19 54 l-19 37 42 10 c57 15 105 41
128 70 19 23 19 25 1 38 -36 26 -143 -12 -190 -68 -14 -17 -28 -28 -33 -25 -4
2 -3 26 2 52 14 74 -10 173 -42 173 -35 0 -53 -139 -25 -193 14 -28 13 -30
-20 -62 -41 -38 -48 -90 -17 -118 34 -31 82 -16 82 25 0 22 -16 24 -24 3 -9
-25 -37 -6 -34 24 2 17 11 29 30 35 40 14 68 -14 68 -67 0 -36 -6 -47 -55 -94
l-54 -53 -36 21 c-29 17 -48 21 -100 17 -41 -2 -65 0 -65 7 -2 40 -15 97 -31
133 -15 35 -23 43 -41 40 -21 -3 -23 -8 -23 -75 0 -64 3 -76 32 -117 36 -50
32 -53 -41 -31 -61 19 -116 19 -141 1 -48 -35 34 -80 136 -74 53 3 69 1 69
-10 0 -25 57 -72 87 -72 33 0 46 8 61 36 9 16 8 26 -4 42 -15 22 -44 30 -44
12 0 -5 5 -10 10 -10 6 0 10 -9 10 -21 0 -32 -52 -22 -64 13 -20 56 52 89 110
52 27 -18 74 -92 74 -115 -1 -15 -184 -104 -284 -139 -85 -29 -182 -36 -227
-17 -45 19 -107 73 -172 152 -97 119 -170 187 -227 212 -67 30 -210 131 -210
149 0 17 75 71 118 85 29 10 38 9 61 -8 47 -36 34 -99 -20 -91 -30 4 -37 28
-10 35 28 7 27 23 -2 23 -45 0 -64 -52 -30 -83 33 -29 81 -26 121 8 l29 24 42
-21 c52 -25 145 -29 168 -6 13 14 12 18 -7 36 -25 23 -98 42 -160 42 -22 0
-40 3 -40 8 0 4 16 17 35 29 68 44 123 170 81 186 -25 10 -82 -47 -107 -108
-24 -59 -30 -63 -49 -40 -7 8 -30 20 -51 27 -22 6 -39 12 -39 13 0 2 7 20 16
41 10 25 14 55 12 86 -5 44 -3 49 36 86 49 48 75 62 113 62 72 0 102 -80 39
-103 -19 -7 -46 7 -46 25 0 5 10 13 23 17 21 8 21 9 3 17 -47 18 -74 -48 -35
-87 27 -27 82 -21 117 15 l24 24 34 -20 c48 -28 136 -35 170 -14 24 17 25 18
9 36 -24 26 -74 41 -145 43 -40 1 -60 6 -60 15 0 6 6 12 14 12 23 0 94 85 107
128 33 112 -62 84 -112 -33 -13 -30 -26 -55 -29 -55 -3 0 -17 10 -33 23 l-27
22 20 53 c42 110 17 180 -89 248 -2 2 11 18 29 36 92 96 89 209 -3 128 -40
-35 -77 -103 -77 -143 0 -41 -14 -32 -41 25 -27 59 -83 118 -111 118 -45 0 -8
-112 56 -168 36 -31 36 -32 24 -77 -11 -40 -10 -47 8 -72 23 -31 67 -41 90
-22 17 14 15 60 -3 66 -7 3 -10 -3 -6 -15 6 -23 -8 -35 -32 -26 -21 8 -17 63
6 77 49 31 106 -37 93 -111 -11 -58 -35 -112 -51 -112 -25 0 -77 -31 -121 -73
-38 -37 -44 -40 -57 -26 -14 14 -12 18 22 40 34 22 103 101 103 117 0 4 -4 13
-9 21 -23 36 -129 -40 -163 -116 -20 -45 -38 -56 -38 -25 0 77 -74 198 -105
172 -32 -26 -11 -117 40 -179 25 -29 25 -32 11 -53 -23 -32 -20 -94 5 -119 40
-40 106 -7 81 43 l-11 23 -7 -22 c-13 -44 -51 -22 -40 22 9 36 51 44 82 14 51
-48 17 -152 -84 -252 l-59 -58 -64 31 c-77 37 -109 65 -174 150 -101 132 -264
270 -369 310 -31 11 -32 21 -8 43 16 15 21 13 72 -18 94 -58 171 -55 236 10
l26 26 49 -54 c74 -83 142 -101 125 -32 -10 38 -99 124 -136 131 -16 4 -30 10
-30 13 0 4 33 17 73 28 84 25 140 71 117 98 -7 8 -20 15 -29 15 -37 0 -117
-31 -143 -55 -31 -29 -45 -30 -72 -10 -32 24 -81 19 -105 -11 -24 -30 -27 -54
-9 -72 15 -15 54 -16 63 -2 3 6 -3 10 -14 10 -28 0 -28 36 0 45 26 8 59 -20
59 -50 0 -60 -83 -77 -166 -34 l-49 25 -6 72 c-4 53 -11 80 -28 103 -13 17
-21 32 -19 33 1 1 21 10 43 20 48 21 76 43 99 78 24 36 12 51 -34 45 -49 -6
-107 -46 -141 -96 -14 -22 -29 -37 -33 -34 -3 4 -6 31 -6 62 -1 90 -54 182
-81 140 -18 -29 -10 -124 15 -172 18 -34 21 -47 12 -50 -21 -8 -47 -74 -40
-101 11 -44 61 -67 88 -41 18 18 22 55 6 55 -5 0 -10 -7 -10 -15 0 -8 -9 -15
-20 -15 -15 0 -20 7 -20 28 0 51 50 71 83 34 35 -39 14 -122 -46 -180 -31 -30
-35 -31 -72 -21 -27 8 -86 9 -185 4 -80 -5 -180 -9 -222 -10 -84 -2 -108 -14
-108 -50 0 -32 -57 -77 -124 -98 -68 -22 -106 -51 -106 -83 0 -14 13 -50 29
-82 15 -31 31 -73 35 -94 6 -33 4 -38 -26 -59 -18 -13 -55 -31 -83 -41 -34
-11 -50 -22 -50 -34 0 -29 29 -39 74 -26 115 35 162 157 99 260 -19 30 -19 34
-4 57 18 28 83 67 141 85 22 7 53 22 69 33 26 18 33 19 100 8 39 -6 86 -14
104 -17 40 -6 52 -32 52 -115 0 -50 -4 -64 -25 -84 -13 -14 -33 -25 -44 -25
-45 0 -70 69 -32 89 21 12 31 5 31 -21 0 -25 17 -23 25 3 4 13 0 27 -11 40
-50 56 -131 -24 -102 -100 8 -21 6 -28 -8 -36 -38 -22 -94 -82 -108 -116 -13
-30 -13 -39 -2 -54 13 -18 15 -17 47 3 36 22 65 56 93 110 22 43 36 41 36 -5
1 -72 64 -173 110 -173 40 0 20 93 -33 156 -15 18 -27 34 -27 37 0 4 16 14 36
23 56 27 89 78 89 138 0 28 -4 68 -8 89 l-8 39 33 -7 c108 -24 368 -206 571
-402 69 -67 76 -80 55 -101 -8 -8 -15 -57 -18 -125 -6 -112 -6 -112 -64 -229
-32 -65 -62 -118 -68 -118 -29 0 -198 153 -184 167 3 3 19 0 36 -7 91 -38 210
53 210 160 0 98 -76 166 -181 163 -137 -4 -219 -110 -207 -271 7 -106 66 -189
189 -269 32 -21 58 -43 59 -49 0 -6 -16 -25 -35 -42 -19 -18 -50 -65 -68 -104
-37 -78 -68 -118 -93 -118 -24 0 -66 25 -97 58 -65 68 -13 178 53 112 21 -21
17 -50 -6 -50 -7 0 -18 8 -23 18 -9 15 -10 13 -11 -10 0 -38 33 -55 65 -34 49
32 40 100 -19 131 -33 18 -33 18 -28 80 3 48 0 72 -16 108 -22 49 -53 64 -66
31 -11 -28 -6 -110 9 -159 8 -27 12 -51 10 -54 -3 -2 -18 7 -33 22 -15 14 -40
31 -55 36 -35 14 -127 14 -147 1 -38 -24 44 -73 143 -85 41 -5 47 -9 41 -23
-29 -68 -4 -159 57 -199 36 -24 49 -42 32 -44 -181 -12 -224 -18 -268 -40
l-46 -23 -44 23 c-64 34 -99 75 -99 115 0 41 18 66 48 66 28 0 46 -18 46 -47
0 -27 -25 -31 -38 -7 -13 23 -22 4 -11 -23 16 -42 78 -24 94 27 8 27 -23 77
-57 93 -26 11 -27 14 -22 62 7 60 -8 122 -37 153 -16 18 -24 21 -35 11 -19
-15 -18 -121 1 -174 18 -48 17 -45 4 -45 -6 0 -24 11 -40 24 -59 50 -194 57
-194 11 0 -29 78 -65 141 -65 l53 0 -11 -31 c-6 -17 -8 -53 -6 -80 6 -58 45
-106 113 -141 22 -11 41 -22 43 -23 2 -2 -4 -26 -14 -54 -26 -81 -16 -168 31
-261 37 -73 37 -76 25 -125 -12 -48 -77 -225 -85 -233 -8 -8 -94 48 -114 74
-38 48 -20 124 28 124 24 0 55 -36 48 -55 -8 -18 -34 -20 -40 -2 -7 21 -19 0
-12 -22 8 -27 55 -28 78 -3 33 36 11 99 -41 121 -27 11 -28 13 -24 80 3 51 0
78 -14 106 -50 107 -99 4 -57 -124 19 -59 12 -74 -19 -42 -30 33 -80 51 -141
51 -127 0 -73 -78 66 -95 47 -6 57 -10 53 -24 -23 -77 -12 -132 34 -176 17
-16 56 -43 88 -60 40 -21 58 -37 60 -53 4 -24 45 -57 60 -48 5 3 12 28 15 55
3 28 29 108 56 178 81 205 101 314 64 344 -32 27 -73 103 -73 136 0 29 5 36
33 47 17 7 56 16 85 20 30 4 106 23 169 42 64 19 117 33 119 31 10 -10 24
-120 18 -140 -19 -65 -95 -91 -115 -39 -12 30 -2 55 25 60 11 3 16 -4 16 -22
0 -34 18 -33 26 1 9 33 -27 67 -60 57 -42 -12 -59 -44 -53 -101 3 -31 2 -53
-4 -53 -39 0 -119 -103 -119 -153 0 -60 76 -15 139 83 l36 55 6 -50 c10 -84
71 -175 115 -175 34 0 17 84 -32 153 -19 26 -34 49 -34 51 0 2 10 7 23 10 54
15 107 89 107 150 0 22 -7 66 -17 99 l-16 58 109 104 c60 57 112 104 117 105
4 0 7 -22 7 -49 0 -60 29 -107 88 -139 l42 -23 -24 -32 c-38 -51 -56 -93 -56
-132 0 -44 25 -47 62 -7 44 47 61 81 67 140 l7 57 28 -45 c39 -61 73 -96 108
-111 41 -17 54 -2 38 45 -13 40 -91 126 -114 126 -12 0 -13 11 -9 53 4 42 1
56 -15 75 -22 25 -73 30 -92 8 -14 -18 -10 -58 8 -64 9 -3 13 3 10 19 -2 16 3
25 14 27 24 5 40 -31 28 -62 -19 -52 -100 -24 -116 40 -4 15 -1 63 6 107 12
75 16 85 74 156 101 125 176 267 176 333 0 23 17 23 80 -2 77 -31 111 -57 266
-209 77 -76 163 -151 190 -167 27 -15 51 -29 54 -31 10 -8 -2 -145 -18 -204
-16 -58 -42 -92 -42 -54 0 30 -32 85 -62 106 -70 50 -157 42 -219 -20 -67 -66
-65 -149 6 -235 83 -103 101 -172 56 -220 -29 -31 -52 -33 -74 -8 -21 23 -22
46 -2 62 18 15 31 6 37 -25 4 -17 6 -16 13 8 9 35 -8 57 -45 57 -54 0 -78 -67
-45 -129 13 -26 13 -30 -7 -47 -29 -26 -68 -112 -68 -152 0 -83 74 -31 111 79
13 38 26 69 30 69 3 0 11 -17 18 -37 25 -81 140 -166 166 -123 11 17 -34 88
-80 127 l-45 37 30 31 c42 44 62 98 55 149 l-7 43 42 7 c100 16 185 79 230
169 24 49 32 83 40 166 6 63 15 108 22 113 21 14 63 5 59 -12 -2 -8 -4 -40 -5
-71 -1 -68 28 -118 90 -151 l41 -22 -32 -45 c-80 -112 -56 -208 28 -110 36 42
62 117 52 150 -11 32 21 22 35 -11 25 -61 124 -139 147 -117 3 3 2 22 -1 42
-8 40 -55 99 -97 121 -26 13 -28 18 -23 57 7 58 -23 107 -66 107 -38 0 -70
-41 -50 -65 18 -21 29 -18 23 6 -5 17 -2 20 18 17 30 -4 38 -48 13 -72 -19
-20 -48 -14 -81 17 -18 16 -23 32 -23 67 0 87 9 111 49 126 20 8 96 45 170 82
128 64 137 67 205 67 145 0 265 -91 344 -260 18 -37 26 -79 33 -165 19 -231
86 -396 218 -539 l41 -43 -20 -27 c-33 -48 -159 -160 -186 -167 -33 -8 -92 18
-138 63 -28 28 -36 43 -36 72 0 44 14 61 50 61 30 0 50 -16 50 -41 0 -27 -19
-33 -41 -13 -18 16 -19 16 -19 -3 0 -49 64 -57 89 -11 21 36 6 75 -39 106 -34
23 -35 25 -32 82 4 68 -10 119 -39 146 -20 18 -21 18 -35 -1 -19 -25 -18 -100
2 -159 9 -26 14 -49 11 -52 -2 -3 -26 9 -52 27 -41 27 -57 32 -111 33 -81 1
-101 -15 -61 -49 31 -28 85 -45 140 -45 32 0 37 -3 33 -17 -25 -84 -11 -142
45 -195 21 -21 39 -40 39 -43 0 -3 -11 -5 -24 -5 -43 0 -185 -80 -220 -123
-61 -78 -81 -94 -149 -116 -37 -13 -67 -27 -67 -32 0 -13 97 -11 145 2 30 8
61 33 120 93 90 93 137 116 236 116 l58 0 -6 -64 c-3 -35 -3 -75 1 -89 9 -37
55 -88 93 -104 l34 -14 -25 -32 c-38 -51 -56 -93 -56 -132 0 -28 4 -35 19 -35
44 0 111 103 111 171 0 22 3 39 8 39 4 0 20 -20 35 -45 34 -53 93 -105 121
-105 16 0 18 5 13 39 -6 48 -45 101 -91 126 -33 18 -34 21 -29 64 4 37 1 51
-17 74 -37 47 -106 30 -98 -24 4 -30 29 -38 26 -8 -4 28 15 35 36 13 16 -16
14 -48 -4 -68 -18 -19 -64 -8 -88 20 -20 25 -23 37 -19 90 3 34 8 67 12 73 3
6 51 34 104 61 79 39 107 59 142 102 23 29 44 55 45 57 2 2 40 -13 86 -32 96
-41 155 -54 273 -63 l85 -7 0 -51 c0 -55 -23 -164 -41 -199 -11 -19 -13 -17
-31 31 -28 76 -73 107 -154 107 -48 0 -69 -5 -91 -21 -95 -70 -99 -185 -9
-282 66 -73 196 -71 309 4 84 55 123 145 135 311 l7 98 58 3 57 3 0 -51 c0
-51 22 -89 61 -102 11 -4 10 -12 -8 -45 -28 -50 -31 -96 -6 -91 24 5 63 66 63
99 0 37 15 37 34 0 15 -28 56 -61 76 -61 25 0 8 52 -30 89 -29 28 -40 47 -40
68 0 35 -16 53 -47 53 -27 0 -41 -26 -24 -43 8 -8 11 -6 11 7 0 24 24 15 28
-11 4 -28 -22 -36 -47 -15 -21 17 -25 34 -23 84 2 23 8 28 40 34 129 22 287
82 427 160 188 105 210 117 271 140 111 42 461 82 478 55 10 -16 -41 -55 -156
-120 -191 -109 -338 -199 -455 -279 -61 -42 -204 -133 -318 -202 -417 -252
-615 -391 -766 -537 -72 -70 -77 -72 -92 -55 -9 10 -22 42 -28 72 -23 111 -44
128 -181 150 -102 17 -120 11 -149 -47 -18 -35 -41 -59 -84 -88 l-60 -40 -130
0 c-152 0 -191 -13 -309 -102 -38 -29 -72 -53 -76 -53 -3 0 -15 7 -27 15 -54
38 -92 243 -59 324 9 23 16 64 16 92 0 138 -120 197 -268 133 l-60 -26 -48 25
c-73 37 -104 72 -104 117 0 25 7 43 21 56 19 17 23 17 47 3 15 -8 28 -23 30
-33 6 -27 -19 -38 -41 -18 -18 16 -19 16 -16 -7 8 -54 58 -53 89 2 13 24 13
30 0 55 -9 15 -29 36 -46 47 -29 19 -30 22 -26 82 7 99 -47 191 -78 134 -15
-29 -12 -101 6 -155 20 -57 13 -68 -24 -34 -34 32 -82 48 -142 48 -32 0 -52
-5 -61 -16 -11 -14 -10 -19 13 -39 26 -23 103 -45 155 -45 19 0 24 -4 19 -16
-32 -83 -4 -168 68 -212 25 -15 46 -31 46 -35 0 -5 -48 -5 -107 0 -170 13
-247 7 -335 -23 l-78 -27 -49 33 c-68 47 -89 100 -57 143 25 33 86 16 86 -24
0 -27 -19 -33 -41 -13 -18 16 -19 16 -19 -2 0 -43 53 -59 83 -26 10 10 17 32
17 49 0 30 -23 57 -74 88 -13 8 -15 16 -6 44 17 58 -19 171 -55 171 -38 0 -44
-85 -12 -178 12 -34 12 -42 1 -42 -7 0 -16 5 -19 10 -24 39 -165 72 -199 47
-42 -31 18 -76 114 -84 l57 -6 -5 -66 c-5 -78 10 -117 59 -152 29 -21 30 -23
13 -30 -62 -24 -172 0 -224 50 -31 30 -40 48 -54 111 -30 139 -108 234 -215
267 -31 9 -60 20 -65 25 -15 12 13 89 44 120 33 33 68 36 101 9 20 -16 22 -23
14 -47 -11 -31 -40 -43 -58 -25 -8 8 -8 14 1 23 14 14 16 28 3 28 -15 0 -41
-30 -41 -46 0 -23 38 -54 65 -54 31 0 71 40 80 81 6 26 11 29 46 29 72 0 159
51 159 93 0 17 -6 19 -54 15 -31 -3 -75 -16 -106 -32 -28 -15 -54 -25 -57 -23
-2 3 3 19 12 37 22 42 22 153 0 186 -21 32 -31 30 -51 -8 -12 -24 -15 -49 -12
-104 l5 -72 -59 -5 c-94 -8 -137 -53 -168 -174 -8 -33 -16 -43 -31 -43 -39 0
-133 -56 -206 -122 -87 -79 -152 -107 -266 -115 -79 -6 -116 -21 -103 -42 15
-23 72 -44 129 -46 37 -1 62 -7 68 -16 5 -8 9 -41 9 -75 0 -50 -4 -64 -23 -82
-26 -24 -66 -29 -85 -10 -19 19 -14 56 8 68 21 11 21 11 33 -30 3 -11 8 -7 17
12 10 22 11 30 0 43 -18 21 -73 19 -94 -4 -18 -20 -25 -73 -13 -106 5 -16 -1
-24 -33 -43 -46 -26 -90 -87 -93 -128 -5 -67 85 -21 139 72 31 53 44 56 44 9
0 -20 6 -50 14 -69 19 -46 74 -106 98 -106 33 0 19 78 -26 145 -20 30 -36 57
-36 59 0 2 10 6 23 10 36 9 85 63 98 107 10 32 10 53 1 98 -7 31 -12 62 -12
67 0 10 48 37 60 35 2 -1 3 -21 1 -45 -1 -24 4 -59 12 -78 14 -34 72 -88 95
-88 24 0 22 -22 -4 -53 -34 -40 -54 -87 -54 -127 0 -25 4 -30 23 -30 45 0 107
99 107 170 0 22 4 40 9 40 5 0 21 -20 35 -44 54 -93 144 -139 139 -72 -3 41
-46 102 -91 127 -38 22 -38 23 -34 73 3 42 0 55 -18 74 -23 24 -69 29 -88 10
-17 -17 -15 -53 3 -68 13 -11 15 -8 15 14 0 36 37 37 46 1 9 -36 -21 -68 -56
-60 -62 16 -80 67 -58 167 12 59 16 65 63 96 82 54 150 74 228 70 88 -5 93
-12 151 -193 32 -100 53 -148 71 -165 l25 -24 -36 -35 c-66 -64 -85 -103 -96
-193 -12 -102 -25 -132 -58 -136 -66 -7 -98 -23 -126 -63 -39 -56 -61 -69
-120 -69 -39 0 -69 -9 -125 -37 -141 -70 -243 -146 -222 -167 16 -15 42 -2 87
43 53 54 73 61 268 101 103 22 108 24 152 70 41 43 51 48 105 54 78 9 97 31
105 124 13 138 36 183 120 231 35 20 48 22 112 16 l72 -7 11 -64 c17 -94 -14
-154 -79 -154 -27 0 -48 44 -33 68 18 29 43 27 43 -3 0 -23 2 -26 15 -15 22
18 18 46 -7 64 -31 22 -45 20 -74 -9 -21 -22 -25 -33 -23 -75 3 -47 1 -51 -38
-79 -64 -46 -114 -144 -80 -157 35 -13 115 57 148 129 18 40 26 33 31 -25 7
-79 83 -185 118 -163 28 17 -2 116 -54 174 -14 16 -17 25 -9 28 26 9 77 49 97
76 23 31 27 97 12 173 -9 45 -13 41 57 61 17 4 18 0 11 -55 -4 -37 -2 -73 6
-96 12 -37 57 -81 98 -97 25 -10 24 -13 -14 -64 -27 -36 -49 -107 -41 -129 25
-63 127 62 127 154 0 23 4 40 10 38 5 -1 26 -28 47 -58 62 -89 148 -119 129
-47 -12 48 -89 130 -133 143 -2 0 1 14 6 30 17 64 -19 119 -76 112 -37 -4 -50
-30 -33 -65 12 -25 14 -26 17 -8 9 43 12 46 33 35 22 -12 27 -49 8 -68 -15
-15 -53 -16 -78 -2 -32 17 -44 77 -30 144 14 70 33 90 100 110 44 13 68 14
154 4 55 -6 105 -14 109 -18 5 -4 4 -32 -2 -63 -14 -74 1 -122 51 -169 21 -21
45 -38 53 -38 22 0 18 -14 -17 -66 -21 -31 -33 -63 -36 -95 -4 -44 -2 -49 16
-49 22 0 78 58 94 99 5 14 13 49 17 76 l6 50 24 -40 c32 -53 70 -94 105 -112
24 -13 31 -13 42 -1 23 23 -28 114 -83 147 -41 25 -43 28 -37 64 12 74 -37
130 -90 106 -28 -13 -38 -39 -24 -63 12 -22 27 -20 21 3 -6 22 9 34 31 25 16
-6 21 -39 10 -68 -10 -25 -61 -20 -89 9 -28 27 -33 89 -15 156 10 36 13 37 81
53 92 21 182 21 199 1 8 -9 15 -64 19 -139 5 -92 11 -130 24 -150 10 -14 26
-53 36 -87 26 -83 57 -124 113 -150 27 -12 48 -25 48 -28 0 -24 -45 -162 -67
-204 l-27 -52 -7 43 c-23 124 -141 187 -248 132 -136 -69 -100 -289 55 -340
42 -14 117 -8 186 15 99 34 171 133 203 280 8 39 18 80 20 92 3 14 22 31 47
44 22 11 62 40 87 64 25 23 60 50 78 59 l32 16 -6 -68 c-4 -52 -2 -75 11 -99
16 -32 65 -74 99 -86 16 -6 14 -13 -19 -61 -44 -67 -59 -146 -28 -146 50 0
114 95 114 170 0 22 4 40 9 40 5 0 21 -20 35 -44 45 -78 127 -130 142 -92 13
33 -67 145 -113 160 -17 5 -19 13 -15 60 4 46 1 56 -19 75 -26 24 -71 28 -89
7 -15 -19 -9 -58 9 -64 10 -3 12 0 8 11 -9 25 18 41 37 22 21 -22 20 -41 -4
-65 -18 -18 -23 -19 -53 -7 -46 19 -59 50 -52 122 6 70 20 85 78 85 58 0 101
25 148 87 41 55 86 83 132 83 30 0 49 -39 78 -157 12 -49 26 -94 31 -100 12
-14 -71 -189 -133 -284 -122 -184 -452 -376 -799 -464 -58 -15 -130 -40 -161
-56 -57 -31 -151 -114 -227 -203 -48 -54 -58 -55 -129 -10 -67 44 -86 118 -38
150 23 15 27 15 50 0 26 -17 30 -32 15 -56 -7 -12 -12 -12 -29 4 -21 19 -21
19 -21 -1 0 -32 26 -48 58 -37 58 20 50 108 -12 138 -32 15 -32 16 -28 76 7
93 -37 185 -71 151 -18 -18 -19 -97 -3 -156 10 -31 15 -60 12 -63 -4 -3 -16 4
-29 16 -51 48 -162 69 -203 37 -19 -15 -18 -16 8 -39 26 -23 102 -46 154 -46
22 0 24 -3 17 -27 -23 -83 6 -160 77 -203 80 -49 76 -44 56 -74 -28 -44 -155
-174 -190 -196 -18 -11 -64 -27 -102 -36 -168 -39 -253 -129 -296 -316 -6 -26
-14 -48 -17 -48 -3 0 -40 -2 -82 -3 -66 -2 -83 -7 -128 -35 -54 -33 -95 -41
-104 -20 -2 7 -2 85 1 172 l5 160 46 46 c31 31 66 53 110 70 113 42 161 111
161 233 0 93 -71 248 -127 278 -27 15 -28 30 -7 92 29 87 98 130 148 94 22
-16 18 -65 -6 -81 -27 -16 -47 8 -30 35 12 18 11 20 -4 17 -9 -1 -23 -13 -31
-25 -14 -20 -13 -24 11 -48 14 -14 34 -25 44 -25 29 0 71 38 80 72 7 30 10 31
63 33 58 1 141 39 152 69 17 44 -78 46 -165 3 -29 -14 -54 -24 -57 -21 -2 2 6
23 18 45 40 70 28 206 -17 197 -27 -5 -44 -56 -44 -129 l1 -69 -51 0 c-27 0
-65 -7 -84 -16 -32 -16 -35 -15 -78 10 -61 36 -96 80 -96 121 0 58 49 85 83
47 23 -26 22 -52 -3 -52 -11 0 -20 5 -20 10 0 6 -4 10 -10 10 -19 0 -10 -39
11 -51 16 -8 27 -8 46 2 49 26 41 99 -15 134 -28 18 -31 24 -24 50 27 115 -44
252 -78 149 -11 -34 -3 -119 17 -170 8 -22 -15 -16 -45 11 -27 25 -106 55
-147 55 -12 0 -30 -7 -41 -15 -18 -14 -18 -16 12 -44 29 -27 102 -51 153 -51
17 0 18 -3 5 -37 -18 -53 -17 -80 6 -129 19 -38 42 -58 122 -107 29 -18 30
-14 -7 -115 -3 -9 -19 -4 -57 17 -29 17 -122 60 -207 96 -213 91 -218 94 -312
181 -46 42 -98 83 -116 90 -44 19 -139 29 -147 16 -9 -15 40 -50 94 -66 76
-23 108 -44 136 -89 15 -23 38 -54 51 -69 l25 -26 -42 -31 c-48 -35 -101 -41
-138 -15 -39 27 -23 84 24 84 31 0 41 -20 19 -36 -24 -18 -13 -28 20 -20 21 5
25 12 25 41 0 64 -60 83 -125 40 l-37 -26 -51 26 c-75 37 -167 34 -167 -6 0
-27 69 -59 145 -66 68 -6 82 -17 41 -33 -35 -13 -84 -69 -102 -117 -46 -120
65 -79 120 44 l19 42 34 -26 c24 -19 50 -28 87 -31 60 -5 96 10 154 62 l37 34
65 -27 c36 -14 103 -47 150 -72 47 -26 109 -54 138 -64 91 -29 205 -135 218
-201 15 -81 -40 -159 -178 -250 -37 -25 -75 -53 -83 -61 -22 -21 -54 -10 -106
35 -36 33 -43 45 -43 76 0 49 24 73 61 60 20 -7 29 -17 31 -37 4 -29 -14 -36
-37 -15 -10 11 -12 8 -9 -12 2 -21 8 -25 38 -25 27 0 37 6 50 28 13 24 13 30
0 55 -9 15 -29 36 -45 46 -29 19 -30 23 -30 95 0 53 -6 86 -18 109 -19 34 -51
43 -61 16 -11 -29 -6 -110 10 -158 9 -26 14 -50 11 -53 -3 -3 -23 9 -44 26
-67 53 -198 64 -198 15 0 -26 69 -60 138 -68 l54 -7 -10 -37 c-22 -83 13 -153
101 -200 58 -31 60 -34 52 -61 -4 -15 -25 -50 -45 -77 -36 -47 -37 -51 -32
-111 4 -42 2 -64 -6 -71 -28 -24 -132 -72 -143 -68 -8 3 -20 22 -29 42 -22 53
-160 277 -221 359 -65 88 -114 127 -212 171 -84 39 -122 68 -122 94 0 23 -32
50 -59 50 -12 0 -67 -29 -120 -65 -54 -36 -103 -65 -108 -65 -17 0 -63 155
-63 212 l1 53 27 -32 c104 -120 290 -57 294 100 1 94 -78 175 -182 185 -65 6
-110 -11 -168 -63 -112 -101 -130 -218 -63 -412 l40 -113 -44 -30 c-66 -45
-95 -39 -172 33 -26 24 -33 39 -33 68 0 35 20 69 40 69 38 0 69 -42 49 -66
-10 -13 -14 -12 -30 2 -18 16 -19 16 -19 -2 0 -24 18 -44 40 -44 23 0 60 42
60 67 0 25 -43 79 -68 87 -15 5 -17 16 -14 72 3 48 0 76 -13 104 -50 111 -102
2 -59 -124 19 -55 13 -68 -19 -38 -52 49 -179 71 -208 36 -12 -14 -9 -20 16
-40 29 -23 101 -44 152 -44 20 0 24 -4 18 -17 -32 -79 -3 -166 70 -212 25 -16
42 -32 37 -35 -33 -20 -222 -86 -247 -86 l-31 0 -13 108 c-7 59 -24 150 -38
202 -32 123 -28 196 16 301 38 91 63 116 161 162 85 39 119 72 144 137 26 66
41 78 135 106 92 28 79 18 208 163 30 35 34 36 100 36 60 0 79 -6 163 -47 63
-31 98 -43 105 -36 17 16 -51 65 -134 95 -98 36 -190 38 -241 6 -19 -12 -51
-46 -70 -75 -35 -52 -37 -53 -110 -68 -41 -9 -84 -21 -96 -27 -20 -11 -62 -56
-136 -145 -29 -36 -51 -50 -111 -72 -41 -15 -94 -43 -116 -63 -23 -19 -44 -33
-47 -30 -3 2 -26 -2 -51 -9 -56 -17 -117 -18 -146 -2 -68 36 -60 114 10 106
20 -2 28 -9 28 -23 0 -15 -6 -19 -22 -18 -31 4 -29 -11 2 -25 21 -10 28 -9 45
8 27 27 25 56 -6 87 -23 23 -31 25 -80 19 -42 -5 -54 -3 -54 7 0 21 -66 82
-110 102 -41 18 -70 15 -70 -8 0 -25 55 -85 108 -117 28 -18 52 -36 52 -41 0
-5 -18 -9 -40 -9 -76 0 -170 -59 -170 -107 0 -25 2 -25 46 -19 30 4 64 19 96
41 47 34 68 38 68 12 1 -25 56 -78 95 -91 25 -9 59 -12 89 -9 46 6 49 5 42
-13 -5 -10 -17 -52 -27 -92 -19 -76 -35 -112 -48 -112 -31 0 -114 35 -146 63
-22 19 -83 63 -137 98 -169 112 -278 233 -278 308 0 40 14 58 66 84 17 9 78
57 135 107 176 154 257 201 417 244 l91 24 11 -36 c23 -86 3 -160 -50 -177
-50 -16 -86 60 -41 85 25 13 35 -1 25 -33 -6 -19 -5 -20 10 -8 19 16 21 52 4
69 -22 22 -65 14 -88 -15 -18 -23 -21 -37 -17 -75 6 -45 5 -47 -29 -67 -39
-23 -94 -104 -94 -138 0 -60 106 3 146 86 25 52 39 52 40 -2 2 -89 98 -206
129 -156 13 20 -6 78 -40 130 -39 56 -42 69 -20 69 22 0 81 56 95 90 12 29 10
101 -6 176 -5 29 -2 33 38 57 67 39 147 125 201 215 26 44 55 83 64 86 22 9
117 -75 166 -148 37 -54 44 -82 14 -57 -8 6 -34 14 -58 17 -93 12 -173 -61
-173 -158 0 -54 21 -89 74 -125 39 -27 144 -32 188 -9 101 53 148 226 92 341
-13 28 -57 84 -97 125 -40 41 -73 77 -73 81 0 4 13 9 29 12 41 9 98 61 127
118 46 91 26 224 -50 349 -56 91 -127 237 -133 275 -5 29 0 44 29 88 38 57 53
97 63 170 8 57 -4 82 -88 199 -30 43 -63 101 -73 130 -33 102 -13 243 50 338
60 91 106 284 106 444 0 230 -91 321 -282 281 -103 -21 -193 -67 -224 -115
-23 -35 -31 -39 -80 -46 -53 -6 -135 0 -190 15 -28 7 -27 7 22 32 140 69 118
273 -34 307 -51 12 -95 2 -141 -32 l-33 -24 -33 19 c-43 26 -65 60 -65 102 0
40 15 57 52 57 30 0 52 -28 42 -54 -8 -20 -13 -20 -36 1 -17 15 -18 15 -18 -4
0 -54 76 -53 94 0 13 37 -8 76 -50 97 -31 15 -31 16 -26 72 5 62 -15 135 -45
159 -13 11 -17 10 -29 -6 -18 -25 -18 -89 2 -154 8 -29 13 -55 10 -58 -2 -3
-20 6 -38 20 -61 45 -154 62 -192 34 -40 -30 28 -75 127 -85 48 -4 57 -8 51
-21 -29 -72 1 -167 68 -210 l37 -24 -6 -61 c-5 -55 -2 -68 26 -123 36 -72 84
-123 144 -155 37 -20 58 -23 172 -24 l130 -2 -2 -42 c-5 -95 -99 -220 -165
-220 -17 0 -77 21 -132 47 -120 56 -190 62 -265 24 -55 -29 -136 -108 -185
-183 -36 -54 -60 -75 -70 -60 -2 4 -9 33 -15 64 -14 76 -43 130 -104 196 -62
65 -117 99 -194 119 -63 16 -93 37 -93 63 0 51 167 125 316 140 96 10 126 26
148 81 32 79 7 323 -47 450 -26 62 -28 111 -12 223 8 60 15 129 15 152 0 42 1
43 38 51 81 17 153 8 232 -30 113 -53 157 -62 222 -44 151 43 197 35 287 -48
54 -50 79 -65 121 -75 80 -19 173 -7 312 41 139 47 181 48 267 5 50 -26 91
-34 91 -17 0 17 -54 62 -108 88 -81 40 -159 43 -243 9 -36 -14 -69 -26 -72
-26 -15 0 -6 81 15 135 32 85 87 122 139 95 34 -19 21 -80 -17 -80 -26 0 -32
18 -12 38 9 9 9 12 -3 12 -20 0 -39 -20 -39 -40 0 -23 32 -50 59 -50 26 0 81
51 81 74 0 12 11 16 48 16 73 0 175 60 148 87 -15 15 -101 6 -150 -15 -27 -12
-51 -20 -54 -17 -3 3 4 23 16 44 37 65 28 181 -14 181 -22 0 -44 -66 -44 -130
0 -45 -3 -61 -12 -57 -9 2 -13 28 -14 78 0 41 -6 84 -12 97 -14 25 -8 42 36
101 32 43 76 62 113 49 16 -5 31 -18 34 -28 9 -29 -12 -60 -40 -60 -27 0 -33
18 -13 38 17 17 3 25 -21 12 -44 -23 -13 -90 43 -90 25 0 76 41 76 61 0 4 35
5 78 2 66 -4 82 -1 110 16 17 11 32 25 32 29 0 28 -121 43 -175 22 -41 -16
-49 -1 -16 32 33 34 54 98 49 149 -7 80 -80 8 -94 -93 -6 -44 -7 -46 -31 -37
-13 5 -47 9 -75 9 -62 0 -94 -21 -138 -90 -24 -38 -37 -49 -49 -44 -9 3 -23 8
-32 11 -15 4 -14 10 7 47 26 47 40 123 26 145 -27 39 -106 -83 -101 -156 2
-21 0 -39 -4 -40 -4 -2 -26 18 -49 44 -43 46 -100 79 -118 68 -32 -20 38 -119
100 -145 27 -11 30 -17 30 -54 0 -49 31 -86 71 -86 45 0 66 44 34 70 -13 10
-15 9 -15 -8 0 -28 -15 -35 -34 -16 -20 20 -20 38 0 58 19 20 43 20 71 1 31
-22 46 -76 38 -136 -6 -44 -12 -53 -46 -74 -21 -14 -46 -40 -55 -57 -9 -18
-18 -35 -20 -37 -2 -2 -15 6 -30 18 -15 11 -32 21 -38 21 -32 1 -35 16 -11 65
25 48 34 128 17 139 -16 10 -54 -26 -73 -68 -10 -23 -19 -64 -19 -93 0 -29 -3
-53 -7 -52 -5 0 -22 19 -38 42 -61 84 -159 111 -133 36 11 -33 81 -97 114
-105 19 -5 22 -13 22 -50 -1 -55 22 -84 68 -84 40 0 61 28 44 60 -14 26 -33
26 -25 1 7 -24 -11 -37 -30 -21 -41 34 6 96 54 71 39 -21 52 -54 49 -123 l-3
-63 -79 -3 c-94 -3 -109 4 -166 88 -25 37 -55 67 -75 77 -32 15 -37 15 -93 -5
-64 -24 -131 -27 -200 -12 -74 17 -242 83 -242 95 0 7 9 20 20 30 52 47 61
144 18 213 -11 18 -19 34 -17 36 2 2 28 16 57 32 58 31 92 66 92 95 0 26 -48
25 -99 0 -38 -20 -101 -83 -101 -101 0 -6 -4 -10 -9 -10 -4 0 -11 32 -15 71
-10 108 -50 167 -83 123 -20 -26 -11 -109 17 -163 l21 -42 -26 -30 c-46 -56
-25 -129 38 -129 31 0 53 32 39 57 -9 14 -10 14 -16 -5 -14 -43 -53 -21 -42
23 12 47 76 44 96 -5 17 -40 5 -80 -37 -129 -38 -46 -78 -66 -147 -76 -42 -7
-47 -5 -72 24 -14 17 -40 35 -57 39 l-32 9 3 70 3 69 -41 38 -41 37 21 29 c56
79 61 147 15 215 l-24 34 47 21 c92 41 151 130 87 130 -51 0 -146 -63 -165
-110 -7 -17 -16 -30 -20 -30 -4 0 -10 31 -13 69 -6 71 -23 117 -52 141 -48 40
-60 -102 -15 -176 21 -37 21 -37 1 -58 -39 -42 -39 -115 0 -137 41 -21 87 8
72 46 -5 13 -8 13 -20 -5 -12 -17 -18 -19 -29 -9 -36 30 13 92 55 69 48 -25
53 -78 13 -141 -54 -83 -53 -82 -214 -77 -155 6 -169 10 -323 80 -79 37 -101
42 -175 45 -140 6 -147 11 -114 76 28 55 64 87 100 87 52 0 64 -9 64 -46 0
-40 -31 -64 -56 -43 -13 10 -12 14 2 30 16 18 16 19 -4 19 -32 0 -47 -36 -28
-65 33 -51 96 -37 131 28 18 33 23 36 52 31 40 -8 134 19 157 45 11 12 16 27
12 37 -5 14 -17 16 -70 12 -35 -3 -79 -13 -97 -22 -52 -26 -80 -16 -42 15 38
32 58 152 33 200 -29 53 -80 -23 -80 -119 l0 -59 -65 0 -65 1 0 50 c0 34 -7
61 -20 81 -25 38 -25 51 1 100 35 66 68 95 109 95 20 0 41 -5 48 -12 17 -17
15 -54 -4 -72 -18 -18 -23 -19 -44 -6 -12 7 -12 12 4 29 19 21 19 21 -1 21
-49 0 -55 -70 -7 -92 36 -17 91 12 110 58 14 32 18 35 45 29 67 -15 191 40
176 78 -9 24 -93 22 -162 -4 -61 -23 -78 -20 -52 9 42 46 58 129 36 191 -26
74 -79 5 -79 -103 l0 -68 -31 6 c-17 3 -35 6 -39 6 -4 0 -10 29 -12 65 -7 85
-32 131 -88 161 -25 13 -55 24 -67 24 -27 0 -27 -2 -7 66 8 29 14 73 12 96 -2
36 -7 44 -25 46 -43 6 -83 -114 -63 -189 6 -22 9 -43 6 -46 -3 -3 -28 15 -56
40 -45 41 -99 67 -136 67 -20 0 -25 -32 -9 -57 20 -29 96 -80 135 -88 23 -5
29 -13 34 -43 11 -73 64 -109 112 -77 27 18 32 60 8 69 -21 8 -21 9 -20 -16 1
-35 -36 -30 -49 6 -13 39 19 67 67 57 45 -9 70 -55 75 -139 5 -63 4 -68 -18
-77 -15 -6 -37 -36 -59 -82 -23 -48 -41 -72 -52 -73 -24 0 -23 8 12 71 28 51
40 125 24 142 -9 9 -45 -12 -65 -37 -27 -32 -52 -121 -44 -156 10 -43 -5 -37
-48 20 -57 76 -129 113 -144 74 -3 -9 2 -32 13 -52 19 -35 97 -102 119 -102 9
0 13 -16 12 -51 -2 -44 2 -54 26 -75 34 -29 48 -30 77 -6 18 14 22 25 16 45
-8 34 -26 35 -26 2 0 -27 -18 -33 -38 -13 -15 15 -15 51 0 66 18 18 66 14 87
-7 40 -40 40 -146 0 -236 -12 -27 -23 -52 -25 -53 -1 -2 -29 6 -61 19 -47 18
-87 23 -215 29 l-156 6 -95 46 c-52 25 -166 93 -253 150 -159 104 -159 104
-172 153 -21 78 -61 107 -101 71 -14 -13 -19 -12 -36 2 -73 61 -96 131 -55
172 22 22 33 24 59 10 22 -11 32 -35 25 -55 -8 -20 -31 -19 -43 2 -13 24 -25
10 -17 -22 5 -21 12 -25 41 -25 28 0 37 5 50 30 13 26 14 34 1 64 -8 18 -24
40 -36 49 -21 15 -21 16 -5 48 34 64 17 195 -23 187 -29 -6 -44 -55 -43 -139
1 -48 -3 -79 -9 -79 -5 0 -10 4 -10 9 0 18 -65 71 -105 87 -51 19 -99 16 -103
-8 -5 -25 46 -66 110 -89 57 -21 57 -22 44 -48 -8 -14 -17 -41 -21 -59 -5 -26
-11 -32 -23 -27 -41 17 -85 22 -123 14 -37 -9 -44 -7 -76 20 -19 16 -44 42
-54 58 -35 52 -18 133 27 133 29 0 54 -21 54 -45 0 -35 -20 -42 -42 -14 l-19
24 3 -29 c7 -69 90 -55 96 17 3 31 -2 43 -28 68 -31 32 -31 32 -16 71 28 68
16 173 -21 185 -6 2 -20 -8 -30 -23z m-1748 -3358 c24 -10 36 -23 41 -43 4
-15 12 -34 18 -42 8 -10 5 -17 -9 -27 -26 -19 -27 -18 -61 17 -19 21 -25 33
-16 36 15 6 16 39 1 49 -6 3 -16 1 -22 -5 -8 -8 -8 -11 2 -11 7 0 9 -5 5 -11
-4 -7 -12 -6 -23 6 -15 15 -15 17 3 31 24 17 19 17 61 0z m915 -861 c0 -38 -3
-44 -22 -47 -22 -3 -34 -39 -13 -37 6 1 9 5 7 11 -1 5 3 8 10 6 7 -3 15 -12
16 -22 7 -32 -49 -16 -70 20 -17 29 -17 34 -4 60 8 16 17 36 20 45 3 12 12 15
30 12 23 -5 26 -10 26 -48z m-123 -67 c-3 -8 -6 -5 -6 6 -1 11 2 17 5 13 3 -3
4 -12 1 -19z m663 2 c0 -5 -4 -10 -10 -10 -5 0 -10 5 -10 10 0 6 5 10 10 10 6
0 10 -4 10 -10z m23 -77 c33 -34 34 -38 20 -60 -14 -21 -17 -21 -36 -8 -12 8
-29 15 -39 15 -14 0 -16 6 -12 30 5 22 2 31 -10 36 -9 4 -20 3 -24 -1 -4 -4
-1 -10 6 -12 17 -6 15 -23 -3 -23 -21 0 -30 27 -15 45 7 8 27 15 46 15 25 0
41 -9 67 -37z m312 -33 c38 -11 90 -20 115 -21 l45 0 -55 -17 c-30 -9 -81 -17
-113 -17 -49 0 -62 4 -77 23 -19 23 -17 52 4 52 6 0 43 -9 81 -20z m-1715
-1185 c0 -8 -4 -15 -10 -15 -5 0 -10 5 -10 12 0 9 -3 9 -12 -1 -11 -10 -9 -16
10 -28 12 -9 22 -24 22 -35 0 -10 11 -30 25 -44 31 -31 33 -45 3 -18 -13 11
-35 28 -50 37 -23 14 -28 25 -28 56 0 21 3 41 7 44 12 13 43 7 43 -8z m-20
-142 c14 -9 27 -18 29 -19 2 -2 5 -26 7 -53 3 -42 0 -51 -16 -56 -23 -7 -40 1
-40 19 0 8 -7 19 -15 26 -14 12 -13 15 5 32 23 22 22 41 -3 46 -12 2 -15 -1
-11 -12 3 -9 2 -16 -4 -16 -15 0 -22 26 -9 39 15 15 28 14 57 -6z m6090 -784
c63 -14 99 -46 183 -157 99 -131 130 -179 123 -191 -10 -16 -111 -34 -148 -27
-55 10 -91 65 -65 100 17 23 48 27 70 8 24 -21 21 -32 -9 -32 -31 0 -28 -24 5
-28 54 -8 71 61 24 98 -22 18 -37 21 -73 17 -43 -4 -46 -3 -75 37 -33 44 -97
86 -132 86 -18 0 -23 -6 -23 -27 0 -30 70 -102 120 -123 42 -17 38 -26 -15
-33 -57 -8 -117 -39 -144 -73 -62 -78 34 -85 134 -9 l45 35 11 -27 c34 -90
126 -123 243 -88 70 21 74 20 98 -30 l22 -45 -76 -73 c-90 -86 -111 -127 -106
-212 7 -115 67 -185 160 -185 60 0 103 21 128 63 25 41 25 83 0 124 -31 51
-62 66 -125 61 -30 -3 -55 -1 -55 4 0 5 26 36 59 68 l59 59 49 -5 c40 -5 63
-1 127 25 43 17 83 28 90 24 7 -5 28 -25 45 -45 47 -54 93 -66 175 -44 72 20
166 27 166 13 0 -4 -26 -32 -57 -60 -201 -181 -259 -272 -334 -527 -29 -98
-53 -152 -104 -231 -61 -94 -134 -145 -245 -168 -30 -7 -134 -16 -230 -22 -96
-5 -203 -16 -238 -24 -78 -18 -72 -19 -72 5 0 56 81 152 171 203 25 14 69 44
96 66 45 35 53 47 78 125 33 101 31 154 -10 232 l-26 51 17 59 c48 167 5 247
-189 350 -38 20 -71 42 -74 49 -2 8 -24 24 -48 35 -35 17 -54 20 -89 15 -40
-6 -56 -2 -121 29 -41 20 -88 36 -105 36 -35 0 -117 -39 -141 -66 -71 -82
-127 -197 -135 -277 -8 -80 -13 -95 -35 -116 -22 -20 -22 -20 -69 4 -79 40
-109 100 -80 156 13 23 53 25 74 3 29 -29 11 -69 -20 -43 -8 6 -18 9 -21 5
-13 -12 13 -41 40 -44 29 -4 57 29 57 66 0 26 -50 82 -73 82 -11 0 -13 14 -10
73 4 58 1 79 -15 107 -24 43 -53 46 -66 8 -9 -26 -3 -82 20 -171 l7 -28 -47
32 c-39 28 -57 34 -114 37 -52 3 -71 0 -80 -11 -28 -33 56 -77 146 -77 46 0
46 0 32 -49 -16 -57 -2 -110 43 -158 l40 -43 -34 6 c-112 22 -307 111 -346
159 -63 76 -51 137 43 224 36 33 79 81 95 106 16 25 33 45 38 45 5 0 33 19 63
42 52 41 55 42 148 48 129 8 270 62 570 220 63 33 129 65 145 69 42 13 161 13
215 0z m2050 -100 c19 -69 -9 -129 -61 -129 -24 0 -41 44 -25 66 15 20 38 11
29 -13 -4 -11 -2 -14 8 -11 35 12 15 68 -25 68 -19 1 -18 3 12 30 18 17 37 30
42 30 5 0 14 -18 20 -41z m-2463 -511 c15 -6 59 -14 97 -18 63 -7 71 -10 105
-48 30 -34 44 -41 83 -45 39 -4 54 -12 92 -50 25 -24 47 -51 48 -58 1 -8 2
-75 3 -150 0 -117 3 -140 18 -157 44 -49 23 -138 -42 -176 -29 -17 -38 -17
-112 -5 -71 11 -84 11 -112 -3 -18 -9 -42 -19 -54 -23 -20 -5 -23 -3 -23 22 0
50 -32 73 -104 73 -50 0 -66 -16 -66 -68 0 -34 -25 -59 -67 -68 -26 -5 -31 -2
-42 24 -11 27 -10 34 7 59 11 15 25 49 32 75 14 55 4 78 -35 78 -28 0 -37 21
-25 57 5 15 13 100 18 189 10 171 20 204 77 273 29 33 55 39 102 19z"/>
</g>
</svg>
